<svg width="133" height="158" viewBox="0 0 133 158" fill="none" xmlns="http://www.w3.org/2000/svg">
<g clip-path="url(#clip0_297_2533)">
<path d="M116.89 0H16.5781C15.6828 0 14.9512 0.728356 14.9512 1.61957V11.5361H118.517V1.61957C118.517 0.728356 117.786 0 116.89 0Z" fill="#B5E5FF"/>
<path d="M20.3636 76.4547L13.3789 74.2787C16.2691 65.0906 15.0467 51.2789 15.0376 51.1387L22.3268 50.4737C22.3813 51.098 23.6946 65.8641 20.3636 76.4547Z" fill="url(#paint0_linear_297_2533)"/>
<path d="M29.1479 88.7372L21.877 87.9094C22.804 79.8205 22.8313 74.4823 22.904 58.6394C22.9176 56.2689 22.9267 53.6676 22.9449 50.7904L30.2659 50.8311C30.2477 53.7083 30.2386 56.3051 30.225 58.6756C30.1477 74.8125 30.1204 80.2503 29.1479 88.7372Z" fill="url(#paint1_linear_297_2533)"/>
<path d="M32.0973 94.4419C29.7934 83.6071 30.8295 52.0254 30.8704 50.6863L38.1868 50.9306C38.1777 51.2518 37.1371 82.9602 39.2593 92.9355L32.0973 94.4419Z" fill="url(#paint2_linear_297_2533)"/>
<path d="M46.1028 85.4981L38.809 84.8738C39.627 75.3871 38.8045 51.1749 38.7954 50.9306L46.1118 50.6818C46.1482 51.6951 46.9571 75.5771 46.1028 85.4981Z" fill="url(#paint3_linear_297_2533)"/>
<path d="M49.0293 93.9172C45.971 82.4761 46.689 52.0073 46.7208 50.718L54.0372 50.8989C54.0281 51.2066 53.3056 81.6075 56.1004 92.0442L49.0293 93.9172Z" fill="url(#paint4_linear_297_2533)"/>
<path d="M55.4372 88.8322C53.9875 78.6307 54.6237 51.8535 54.651 50.718L61.9674 50.8944C61.9629 51.1658 61.3221 78.2055 62.6854 87.8098L55.4372 88.8322Z" fill="url(#paint5_linear_297_2533)"/>
<path d="M67.984 93.9262L60.9175 92.0261C63.0533 84.15 62.8397 59.6754 62.5762 50.9125L69.8926 50.6954C69.9335 52.0299 70.8378 83.408 67.984 93.9262Z" fill="url(#paint6_linear_297_2533)"/>
<path d="M71.206 89.8094C69.4428 78.8524 70.4607 51.8128 70.5061 50.6637L77.8226 50.9442C77.8135 51.2201 76.7865 78.4045 78.4361 88.6558L71.206 89.8094Z" fill="url(#paint7_linear_297_2533)"/>
<path d="M85.7477 50.8085H78.4268V81.9151H85.7477V50.8085Z" fill="url(#paint8_linear_297_2533)"/>
<path d="M92.4099 90.0854L85.2935 88.3844C87.5838 78.8795 86.3705 51.2473 86.3614 50.9713L93.6733 50.6456C93.7233 51.8218 94.9411 79.5853 92.4099 90.0854Z" fill="url(#paint9_linear_297_2533)"/>
<path d="M98.2769 95.3015C93.2326 85.1543 94.1597 54.1788 94.2824 50.6773L101.599 50.9306C101.285 59.9287 101.258 84.8602 104.839 92.0669L98.2769 95.3015Z" fill="url(#paint10_linear_297_2533)"/>
<path d="M104.371 89.0268C102.23 78.1783 102.203 51.9213 102.203 50.8085H109.524C109.524 51.0754 109.547 77.4636 111.551 87.6198L104.371 89.0268Z" fill="url(#paint11_linear_297_2533)"/>
<path d="M112.573 77.9702C110.16 69.3883 110.133 51.564 110.133 50.8085H117.454C117.454 50.9849 117.481 68.3885 119.621 76.0068L112.573 77.9702Z" fill="url(#paint12_linear_297_2533)"/>
<path d="M54.8915 8.16573C53.9962 8.16573 52.9965 7.48714 52.6693 6.65926L51.2832 3.15772C50.956 2.32984 49.9563 1.65125 49.061 1.65125H23.4808C22.5856 1.65125 21.5858 2.32984 21.2586 3.15772L19.8726 6.65926C19.5454 7.48714 18.5456 8.16573 17.6504 8.16573H16.5825C15.6872 8.16573 14.9556 8.89408 14.9556 9.7853V55.4003C14.9556 56.2915 15.6872 57.0198 16.5825 57.0198H116.895C117.79 57.0198 118.522 56.2915 118.522 55.4003V9.7853C118.522 8.89408 117.79 8.16573 116.895 8.16573H54.8915Z" fill="url(#paint13_linear_297_2533)"/>
<path d="M47.8341 5.74994C47.7433 5.84042 47.5933 5.84042 47.4979 5.74994C47.407 5.65946 47.407 5.51017 47.4979 5.41517L49.4156 3.50606C49.5065 3.41558 49.6564 3.41558 49.7519 3.50606C49.8427 3.59654 49.8427 3.74583 49.7519 3.84083L47.8341 5.74994Z" fill="#5E5E5E"/>
<path d="M47.4979 3.84083C47.407 3.75035 47.407 3.60106 47.4979 3.50606C47.5887 3.41558 47.7387 3.41558 47.8341 3.50606L49.7519 5.41517C49.8427 5.50565 49.8427 5.65494 49.7519 5.74994C49.661 5.84042 49.511 5.84042 49.4156 5.74994L47.4979 3.84083Z" fill="#5E5E5E"/>
<path d="M113.555 5.74994C113.464 5.84042 113.314 5.84042 113.219 5.74994C113.128 5.65946 113.128 5.51017 113.219 5.41517L115.136 3.50606C115.227 3.41558 115.377 3.41558 115.473 3.50606C115.563 3.59654 115.563 3.74583 115.473 3.84083L113.555 5.74994Z" fill="#5E5E5E"/>
<path d="M113.219 3.84083C113.128 3.75035 113.128 3.60106 113.219 3.50606C113.314 3.41558 113.459 3.41558 113.555 3.50606L115.473 5.41517C115.568 5.50565 115.563 5.65494 115.473 5.74994C115.382 5.84042 115.232 5.84042 115.136 5.74994L113.219 3.84083Z" fill="#5E5E5E"/>
<path d="M109.042 18.2722C109.042 18.5753 108.792 18.8241 108.488 18.8241H24.9807C24.6762 18.8241 24.4263 18.5753 24.4263 18.2722V12.7666C24.4263 12.4635 24.6762 12.2147 24.9807 12.2147H108.488C108.792 12.2147 109.042 12.4635 109.042 12.7666V18.2722Z" fill="#E0F1FC"/>
<path d="M111.233 3.63727H109.238V5.62328H111.233V3.63727Z" stroke="#5E5E5E" stroke-miterlimit="10" stroke-linecap="round" stroke-linejoin="round"/>
<path d="M107.125 5.62326H105.13" stroke="#5E5E5E" stroke-miterlimit="10" stroke-linecap="round" stroke-linejoin="round"/>
<path d="M48.4389 27.4739C47.9618 26.9989 47.9618 26.2299 48.4389 25.7548C48.9161 25.2798 49.6886 25.2798 50.1658 25.7548L56.696 32.2512C57.1732 32.7262 57.1732 33.4953 56.696 33.9748C56.2189 34.4499 55.4463 34.4499 54.9692 33.9748L48.4389 27.4739Z" fill="#5E5E5E"/>
<path d="M56.6963 27.4739C57.1735 26.9989 57.1735 26.2299 56.6963 25.7548C56.2146 25.2798 55.4466 25.2798 54.9649 25.7548L48.4392 32.2512C47.962 32.7262 47.9666 33.4953 48.4392 33.9748C48.9163 34.4499 49.6889 34.4499 50.166 33.9748L56.6963 27.4739Z" fill="#5E5E5E"/>
<path d="M76.7729 27.4739C76.2957 26.9989 76.2957 26.2299 76.7729 25.7548C77.2546 25.2798 78.0226 25.2798 78.5043 25.7548L85.03 32.2512C85.5072 32.7262 85.5026 33.4953 85.03 33.9748C84.5529 34.4499 83.7803 34.4499 83.3032 33.9748L76.7729 27.4739Z" fill="#5E5E5E"/>
<path d="M85.0256 27.4739C85.5028 26.9989 85.5028 26.2299 85.0256 25.7548C84.5485 25.2798 83.7759 25.2798 83.2988 25.7548L76.7685 32.2512C76.2914 32.7262 76.2914 33.4953 76.7685 33.9748C77.2457 34.4499 78.0182 34.4499 78.4954 33.9748L85.0256 27.4739Z" fill="#5E5E5E"/>
<path d="M71.3469 40.34C72.024 40.34 72.5694 39.7972 72.5694 39.1231C72.5694 38.449 72.024 37.9062 71.3515 37.9062H62.1218C61.4447 37.9062 60.8994 38.4536 60.8994 39.1276C60.8994 39.7972 61.4447 40.34 62.1218 40.3446H71.3469V40.34Z" fill="#5E5E5E"/>
<path d="M115.845 13.7618C115.845 13.9473 115.695 14.1011 115.505 14.1011H111.605C111.419 14.1011 111.265 13.9518 111.265 13.7618C111.265 13.5764 111.415 13.4271 111.605 13.4271H115.505C115.691 13.4271 115.845 13.5764 115.845 13.7618Z" fill="#8F8F8F"/>
<path d="M115.845 15.5171C115.845 15.7026 115.695 15.8564 115.505 15.8564H111.605C111.419 15.8564 111.265 15.7071 111.265 15.5171C111.265 15.3316 111.415 15.1778 111.605 15.1778H115.505C115.691 15.1823 115.845 15.3316 115.845 15.5171Z" fill="#8F8F8F"/>
<path d="M115.845 17.2724C115.845 17.4579 115.695 17.6117 115.505 17.6117H111.605C111.419 17.6117 111.265 17.4624 111.265 17.2724C111.265 17.0869 111.415 16.9377 111.605 16.9377H115.505C115.691 16.9377 115.845 17.0869 115.845 17.2724Z" fill="#8F8F8F"/>
<path d="M23.1719 14.8566C23.0628 14.7616 22.8947 14.7662 22.7992 14.8747L22.5447 15.1507C22.4448 13.9835 21.4586 13.0606 20.2589 13.0606C18.991 13.0606 17.9595 14.0876 17.9595 15.3498C17.9595 16.6119 18.991 17.6389 20.2589 17.6389C20.4043 17.6389 20.5225 17.5213 20.5225 17.3765C20.5225 17.2317 20.4043 17.1141 20.2589 17.1141C19.2819 17.1141 18.4912 16.3224 18.4912 15.3543C18.4912 14.3816 19.2864 13.5945 20.2589 13.5945C21.1723 13.5945 21.9222 14.2912 22.0085 15.1824L21.7313 14.9336C21.6222 14.834 21.4541 14.8431 21.3587 14.9516C21.2587 15.0602 21.2678 15.2231 21.3768 15.3226L22.1312 16.0057C22.1812 16.051 22.2448 16.0736 22.3084 16.0736C22.313 16.0736 22.3175 16.0736 22.3221 16.0736C22.3902 16.0691 22.4584 16.0374 22.5038 15.9876L23.19 15.2367C23.29 15.1236 23.2809 14.9562 23.1719 14.8566Z" fill="#8F8F8F"/>
<path opacity="0.5" d="M117.495 104.707C117.395 105.277 116.854 105.738 116.281 105.738H16.2507C15.6826 105.738 15.1373 105.277 15.0373 104.707L6.57573 56.0246C6.43939 55.2374 6.87565 54.595 7.54822 54.595H124.988C125.661 54.595 126.097 55.2374 125.961 56.0246L117.495 104.707Z" fill="white"/>
<path d="M124.984 54.595H7.54383C6.87126 54.595 6.435 55.2374 6.57133 56.0246L8.08461 64.7377H124.439L125.952 56.0246C126.093 55.2329 125.661 54.595 124.984 54.595Z" fill="#D9D9D9"/>
<path d="M128.179 58.2368C128.179 58.9063 127.633 59.4492 126.961 59.4492H6.03967C5.3671 59.4492 4.82178 58.9063 4.82178 58.2368V45.6873C4.82178 45.0178 5.3671 44.4749 6.03967 44.4749H126.956C127.629 44.4749 128.174 45.0178 128.174 45.6873V58.2368H128.179Z" fill="#FF5263"/>
<path d="M9.97045 56.8886C9.97045 57.4496 9.51601 57.902 8.95251 57.902C8.38901 57.902 7.93457 57.4496 7.93457 56.8886V47.04C7.93457 46.479 8.38901 46.0266 8.95251 46.0266C9.51601 46.0266 9.97045 46.479 9.97045 47.04V56.8886Z" fill="#20242F"/>
<path d="M16.7414 56.8886C16.7414 57.4496 16.287 57.902 15.7235 57.902C15.16 57.902 14.7056 57.4496 14.7056 56.8886V47.04C14.7056 46.479 15.16 46.0266 15.7235 46.0266C16.287 46.0266 16.7414 46.479 16.7414 47.04V56.8886Z" fill="#20242F"/>
<path d="M23.5124 56.8886C23.5124 57.4496 23.058 57.902 22.4945 57.902C21.931 57.902 21.4766 57.4496 21.4766 56.8886V47.04C21.4766 46.479 21.931 46.0266 22.4945 46.0266C23.058 46.0266 23.5124 46.479 23.5124 47.04V56.8886Z" fill="#20242F"/>
<path d="M30.279 56.8886C30.279 57.4496 29.8246 57.902 29.2611 57.902C28.6976 57.902 28.2432 57.4496 28.2432 56.8886V47.04C28.2432 46.479 28.6976 46.0266 29.2611 46.0266C29.8246 46.0266 30.279 46.479 30.279 47.04V56.8886Z" fill="#20242F"/>
<path d="M37.0505 56.8886C37.0505 57.4496 36.5961 57.902 36.0326 57.902C35.4691 57.902 35.0146 57.4496 35.0146 56.8886V47.04C35.0146 46.479 35.4691 46.0266 36.0326 46.0266C36.5961 46.0266 37.0505 46.479 37.0505 47.04V56.8886Z" fill="#20242F"/>
<path d="M43.8215 56.8886C43.8215 57.4496 43.3671 57.902 42.8036 57.902C42.2401 57.902 41.7856 57.4496 41.7856 56.8886V47.04C41.7856 46.479 42.2401 46.0266 42.8036 46.0266C43.3671 46.0266 43.8215 46.479 43.8215 47.04V56.8886Z" fill="#20242F"/>
<path d="M50.5925 56.8886C50.5925 57.4496 50.1381 57.902 49.5746 57.902C49.0111 57.902 48.5566 57.4496 48.5566 56.8886V47.04C48.5566 46.479 49.0111 46.0266 49.5746 46.0266C50.1381 46.0266 50.5925 46.479 50.5925 47.04V56.8886Z" fill="#20242F"/>
<path d="M57.3591 56.8886C57.3591 57.4496 56.9047 57.902 56.3412 57.902C55.7777 57.902 55.3232 57.4496 55.3232 56.8886V47.04C55.3232 46.479 55.7777 46.0266 56.3412 46.0266C56.9047 46.0266 57.3591 46.479 57.3591 47.04V56.8886Z" fill="#20242F"/>
<path d="M64.1301 56.8886C64.1301 57.4496 63.6757 57.902 63.1122 57.902C62.5487 57.902 62.0942 57.4496 62.0942 56.8886V47.04C62.0942 46.479 62.5487 46.0266 63.1122 46.0266C63.6757 46.0266 64.1301 46.479 64.1301 47.04V56.8886Z" fill="#20242F"/>
<path d="M70.9011 56.8886C70.9011 57.4496 70.4467 57.902 69.8832 57.902C69.3197 57.902 68.8652 57.4496 68.8652 56.8886V47.04C68.8652 46.479 69.3197 46.0266 69.8832 46.0266C70.4467 46.0266 70.9011 46.479 70.9011 47.04V56.8886Z" fill="#20242F"/>
<path d="M77.6726 56.8886C77.6726 57.4496 77.2182 57.902 76.6547 57.902C76.0912 57.902 75.6367 57.4496 75.6367 56.8886V47.04C75.6367 46.479 76.0912 46.0266 76.6547 46.0266C77.2182 46.0266 77.6726 46.479 77.6726 47.04V56.8886Z" fill="#20242F"/>
<path d="M84.4392 56.8886C84.4392 57.4496 83.9848 57.902 83.4213 57.902C82.8578 57.902 82.4033 57.4496 82.4033 56.8886V47.04C82.4033 46.479 82.8578 46.0266 83.4213 46.0266C83.9848 46.0266 84.4392 46.479 84.4392 47.04V56.8886Z" fill="#20242F"/>
<path d="M91.2102 56.8886C91.2102 57.4496 90.7558 57.902 90.1923 57.902C89.6288 57.902 89.1743 57.4496 89.1743 56.8886V47.04C89.1743 46.479 89.6288 46.0266 90.1923 46.0266C90.7558 46.0266 91.2102 46.479 91.2102 47.04V56.8886Z" fill="#20242F"/>
<path d="M97.9812 56.8886C97.9812 57.4496 97.5267 57.902 96.9632 57.902C96.3997 57.902 95.9453 57.4496 95.9453 56.8886V47.04C95.9453 46.479 96.3997 46.0266 96.9632 46.0266C97.5267 46.0266 97.9812 46.479 97.9812 47.04V56.8886Z" fill="#20242F"/>
<path d="M104.752 56.8886C104.752 57.4496 104.298 57.902 103.734 57.902C103.171 57.902 102.716 57.4496 102.716 56.8886V47.04C102.716 46.479 103.171 46.0266 103.734 46.0266C104.298 46.0266 104.752 46.479 104.752 47.04V56.8886Z" fill="#20242F"/>
<path d="M111.519 56.8886C111.519 57.4496 111.064 57.902 110.501 57.902C109.937 57.902 109.483 57.4496 109.483 56.8886V47.04C109.483 46.479 109.937 46.0266 110.501 46.0266C111.064 46.0266 111.519 46.479 111.519 47.04V56.8886Z" fill="#20242F"/>
<path d="M118.29 56.8886C118.29 57.4496 117.835 57.902 117.272 57.902C116.708 57.902 116.254 57.4496 116.254 56.8886V47.04C116.254 46.479 116.708 46.0266 117.272 46.0266C117.835 46.0266 118.29 46.479 118.29 47.04V56.8886Z" fill="#20242F"/>
<path d="M125.061 56.8886C125.061 57.4496 124.607 57.902 124.043 57.902C123.48 57.902 123.025 57.4496 123.025 56.8886V47.04C123.025 46.479 123.48 46.0266 124.043 46.0266C124.607 46.0266 125.061 46.479 125.061 47.04V56.8886Z" fill="#20242F"/>
<path d="M133 105.738H0V109H133V105.738Z" fill="#2A2F3D"/>
</g>
<g clip-path="url(#clip1_297_2533)">
<path d="M20.3636 139.545L13.3789 141.721C16.2691 150.909 15.0467 164.721 15.0376 164.861L22.3268 165.526C22.3813 164.902 23.6946 150.136 20.3636 139.545Z" fill="url(#paint14_linear_297_2533)"/>
<path d="M29.1479 127.263L21.877 128.091C22.804 136.179 22.8313 141.518 22.904 157.361C22.9176 159.731 22.9267 162.332 22.9449 165.21L30.2659 165.169C30.2477 162.292 30.2386 159.695 30.225 157.324C30.1477 141.187 30.1204 135.75 29.1479 127.263Z" fill="url(#paint15_linear_297_2533)"/>
<path d="M32.0973 121.558C29.7934 132.393 30.8295 163.975 30.8704 165.314L38.1868 165.069C38.1777 164.748 37.1371 133.04 39.2593 123.065L32.0973 121.558Z" fill="url(#paint16_linear_297_2533)"/>
<path d="M46.1028 130.502L38.809 131.126C39.627 140.613 38.8045 164.825 38.7954 165.069L46.1118 165.318C46.1482 164.305 46.9571 140.423 46.1028 130.502Z" fill="url(#paint17_linear_297_2533)"/>
<path d="M49.0293 122.083C45.971 133.524 46.689 163.993 46.7208 165.282L54.0372 165.101C54.0281 164.793 53.3056 134.393 56.1004 123.956L49.0293 122.083Z" fill="url(#paint18_linear_297_2533)"/>
<path d="M55.4372 127.168C53.9875 137.369 54.6237 164.147 54.651 165.282L61.9674 165.106C61.9629 164.834 61.3221 137.795 62.6854 128.19L55.4372 127.168Z" fill="url(#paint19_linear_297_2533)"/>
<path d="M67.984 122.074L60.9175 123.974C63.0533 131.85 62.8397 156.325 62.5762 165.087L69.8926 165.305C69.9335 163.97 70.8378 132.592 67.984 122.074Z" fill="url(#paint20_linear_297_2533)"/>
<path d="M71.206 126.191C69.4428 137.148 70.4607 164.187 70.5061 165.336L77.8226 165.056C77.8135 164.78 76.7865 137.595 78.4361 127.344L71.206 126.191Z" fill="url(#paint21_linear_297_2533)"/>
<path d="M85.7477 165.192H78.4268V134.085H85.7477V165.192Z" fill="url(#paint22_linear_297_2533)"/>
<path d="M92.4099 125.915L85.2935 127.616C87.5838 137.12 86.3705 164.753 86.3614 165.029L93.6733 165.354C93.7233 164.178 94.9411 136.415 92.4099 125.915Z" fill="url(#paint23_linear_297_2533)"/>
<path d="M98.2769 120.699C93.2326 130.846 94.1597 161.821 94.2824 165.323L101.599 165.069C101.285 156.071 101.258 131.14 104.839 123.933L98.2769 120.699Z" fill="url(#paint24_linear_297_2533)"/>
<path d="M104.371 126.973C102.23 137.822 102.203 164.079 102.203 165.192H109.524C109.524 164.925 109.547 138.536 111.551 128.38L104.371 126.973Z" fill="url(#paint25_linear_297_2533)"/>
<path d="M112.573 138.03C110.16 146.612 110.133 164.436 110.133 165.192H117.454C117.454 165.015 117.481 147.611 119.621 139.993L112.573 138.03Z" fill="url(#paint26_linear_297_2533)"/>
<path opacity="0.5" d="M117.495 111.293C117.395 110.723 116.854 110.262 116.281 110.262H16.2507C15.6826 110.262 15.1373 110.723 15.0373 111.293L6.57573 159.975C6.43939 160.763 6.87565 161.405 7.54822 161.405H124.988C125.661 161.405 126.097 160.763 125.961 159.975L117.495 111.293Z" fill="white"/>
<path d="M124.984 161.405H7.54383C6.87126 161.405 6.435 160.763 6.57133 159.975L8.08461 151.262H124.439L125.952 159.975C126.093 160.767 125.661 161.405 124.984 161.405Z" fill="#D9D9D9"/>
<path d="M128.179 157.763C128.179 157.094 127.633 156.551 126.961 156.551H6.03967C5.3671 156.551 4.82178 157.094 4.82178 157.763V170.313C4.82178 170.982 5.3671 171.525 6.03967 171.525H126.956C127.629 171.525 128.174 170.982 128.174 170.313V157.763H128.179Z" fill="#FF5263"/>
<path d="M133 110.262H0V107H133V110.262Z" fill="#2A2F3D"/>
<rect y="107" width="133" height="54" fill="url(#paint27_linear_297_2533)"/>
</g>
<defs>
<linearGradient id="paint0_linear_297_2533" x1="18.0011" y1="93.9912" x2="18.0011" y2="60.1765" gradientUnits="userSpaceOnUse">
<stop stop-color="white"/>
<stop offset="1" stop-color="#BBDBF0"/>
</linearGradient>
<linearGradient id="paint1_linear_297_2533" x1="26.0695" y1="93.9909" x2="26.0695" y2="60.1765" gradientUnits="userSpaceOnUse">
<stop stop-color="white"/>
<stop offset="1" stop-color="#BBDBF0"/>
</linearGradient>
<linearGradient id="paint2_linear_297_2533" x1="34.9309" y1="93.9911" x2="34.9309" y2="60.1766" gradientUnits="userSpaceOnUse">
<stop stop-color="white"/>
<stop offset="1" stop-color="#BBDBF0"/>
</linearGradient>
<linearGradient id="paint3_linear_297_2533" x1="42.6465" y1="93.9907" x2="42.6465" y2="60.1766" gradientUnits="userSpaceOnUse">
<stop stop-color="white"/>
<stop offset="1" stop-color="#BBDBF0"/>
</linearGradient>
<linearGradient id="paint4_linear_297_2533" x1="51.3657" y1="93.9908" x2="51.3657" y2="60.1763" gradientUnits="userSpaceOnUse">
<stop stop-color="white"/>
<stop offset="1" stop-color="#BBDBF0"/>
</linearGradient>
<linearGradient id="paint5_linear_297_2533" x1="58.5873" y1="93.9912" x2="58.5873" y2="60.1766" gradientUnits="userSpaceOnUse">
<stop stop-color="white"/>
<stop offset="1" stop-color="#BBDBF0"/>
</linearGradient>
<linearGradient id="paint6_linear_297_2533" x1="65.4887" y1="93.9909" x2="65.4887" y2="60.1764" gradientUnits="userSpaceOnUse">
<stop stop-color="white"/>
<stop offset="1" stop-color="#BBDBF0"/>
</linearGradient>
<linearGradient id="paint7_linear_297_2533" x1="74.303" y1="93.9911" x2="74.303" y2="60.1766" gradientUnits="userSpaceOnUse">
<stop stop-color="white"/>
<stop offset="1" stop-color="#BBDBF0"/>
</linearGradient>
<linearGradient id="paint8_linear_297_2533" x1="82.0878" y1="93.9909" x2="82.0878" y2="60.1764" gradientUnits="userSpaceOnUse">
<stop stop-color="white"/>
<stop offset="1" stop-color="#BBDBF0"/>
</linearGradient>
<linearGradient id="paint9_linear_297_2533" x1="89.6503" y1="93.991" x2="89.6503" y2="60.1766" gradientUnits="userSpaceOnUse">
<stop stop-color="white"/>
<stop offset="1" stop-color="#BBDBF0"/>
</linearGradient>
<linearGradient id="paint10_linear_297_2533" x1="99.4894" y1="93.9907" x2="99.4894" y2="60.1764" gradientUnits="userSpaceOnUse">
<stop stop-color="white"/>
<stop offset="1" stop-color="#BBDBF0"/>
</linearGradient>
<linearGradient id="paint11_linear_297_2533" x1="106.881" y1="93.9908" x2="106.881" y2="60.1763" gradientUnits="userSpaceOnUse">
<stop stop-color="white"/>
<stop offset="1" stop-color="#BBDBF0"/>
</linearGradient>
<linearGradient id="paint12_linear_297_2533" x1="114.877" y1="93.9914" x2="114.877" y2="60.1765" gradientUnits="userSpaceOnUse">
<stop stop-color="white"/>
<stop offset="1" stop-color="#BBDBF0"/>
</linearGradient>
<linearGradient id="paint13_linear_297_2533" x1="66.7332" y1="46.6243" x2="66.7332" y2="55.9982" gradientUnits="userSpaceOnUse">
<stop stop-color="white"/>
<stop offset="1" stop-color="#BBDBF0"/>
</linearGradient>
<linearGradient id="paint14_linear_297_2533" x1="18.0011" y1="122.009" x2="18.0011" y2="155.824" gradientUnits="userSpaceOnUse">
<stop stop-color="white"/>
<stop offset="1" stop-color="#BBDBF0"/>
</linearGradient>
<linearGradient id="paint15_linear_297_2533" x1="26.0695" y1="122.009" x2="26.0695" y2="155.824" gradientUnits="userSpaceOnUse">
<stop stop-color="white"/>
<stop offset="1" stop-color="#BBDBF0"/>
</linearGradient>
<linearGradient id="paint16_linear_297_2533" x1="34.9309" y1="122.009" x2="34.9309" y2="155.823" gradientUnits="userSpaceOnUse">
<stop stop-color="white"/>
<stop offset="1" stop-color="#BBDBF0"/>
</linearGradient>
<linearGradient id="paint17_linear_297_2533" x1="42.6465" y1="122.009" x2="42.6465" y2="155.823" gradientUnits="userSpaceOnUse">
<stop stop-color="white"/>
<stop offset="1" stop-color="#BBDBF0"/>
</linearGradient>
<linearGradient id="paint18_linear_297_2533" x1="51.3657" y1="122.009" x2="51.3657" y2="155.824" gradientUnits="userSpaceOnUse">
<stop stop-color="white"/>
<stop offset="1" stop-color="#BBDBF0"/>
</linearGradient>
<linearGradient id="paint19_linear_297_2533" x1="58.5873" y1="122.009" x2="58.5873" y2="155.823" gradientUnits="userSpaceOnUse">
<stop stop-color="white"/>
<stop offset="1" stop-color="#BBDBF0"/>
</linearGradient>
<linearGradient id="paint20_linear_297_2533" x1="65.4887" y1="122.009" x2="65.4887" y2="155.824" gradientUnits="userSpaceOnUse">
<stop stop-color="white"/>
<stop offset="1" stop-color="#BBDBF0"/>
</linearGradient>
<linearGradient id="paint21_linear_297_2533" x1="74.303" y1="122.009" x2="74.303" y2="155.823" gradientUnits="userSpaceOnUse">
<stop stop-color="white"/>
<stop offset="1" stop-color="#BBDBF0"/>
</linearGradient>
<linearGradient id="paint22_linear_297_2533" x1="82.0878" y1="122.009" x2="82.0878" y2="155.824" gradientUnits="userSpaceOnUse">
<stop stop-color="white"/>
<stop offset="1" stop-color="#BBDBF0"/>
</linearGradient>
<linearGradient id="paint23_linear_297_2533" x1="89.6503" y1="122.009" x2="89.6503" y2="155.823" gradientUnits="userSpaceOnUse">
<stop stop-color="white"/>
<stop offset="1" stop-color="#BBDBF0"/>
</linearGradient>
<linearGradient id="paint24_linear_297_2533" x1="99.4894" y1="122.009" x2="99.4894" y2="155.824" gradientUnits="userSpaceOnUse">
<stop stop-color="white"/>
<stop offset="1" stop-color="#BBDBF0"/>
</linearGradient>
<linearGradient id="paint25_linear_297_2533" x1="106.881" y1="122.009" x2="106.881" y2="155.824" gradientUnits="userSpaceOnUse">
<stop stop-color="white"/>
<stop offset="1" stop-color="#BBDBF0"/>
</linearGradient>
<linearGradient id="paint26_linear_297_2533" x1="114.877" y1="122.009" x2="114.877" y2="155.823" gradientUnits="userSpaceOnUse">
<stop stop-color="white"/>
<stop offset="1" stop-color="#BBDBF0"/>
</linearGradient>
<linearGradient id="paint27_linear_297_2533" x1="66.5" y1="107" x2="65.5" y2="155.5" gradientUnits="userSpaceOnUse">
<stop stop-color="#121419" stop-opacity="0.83"/>
<stop offset="1" stop-color="#121419"/>
</linearGradient>
<clipPath id="clip0_297_2533">
<rect width="133" height="109" fill="white"/>
</clipPath>
<clipPath id="clip1_297_2533">
<rect width="133" height="51" fill="white" transform="matrix(1 0 0 -1 0 158)"/>
</clipPath>
</defs>
</svg>
