<svg width="106" height="49" viewBox="0 0 106 49" fill="none" xmlns="http://www.w3.org/2000/svg">
<circle cx="16" cy="16" r="16" fill="url(#paint0_linear_151_2918)"/>
<g filter="url(#filter0_d_151_2918)">
<path d="M18.4002 28.04H25.1202V32H13.2702V10.94H18.4002V28.04ZM35.387 32.24C33.747 32.24 32.267 31.89 30.947 31.19C29.647 30.49 28.617 29.49 27.857 28.19C27.117 26.89 26.747 25.37 26.747 23.63C26.747 21.91 27.127 20.4 27.887 19.1C28.647 17.78 29.687 16.77 31.007 16.07C32.327 15.37 33.807 15.02 35.447 15.02C37.087 15.02 38.567 15.37 39.887 16.07C41.207 16.77 42.247 17.78 43.007 19.1C43.767 20.4 44.147 21.91 44.147 23.63C44.147 25.35 43.757 26.87 42.977 28.19C42.217 29.49 41.167 30.49 39.827 31.19C38.507 31.89 37.027 32.24 35.387 32.24ZM35.387 27.8C36.367 27.8 37.197 27.44 37.877 26.72C38.577 26 38.927 24.97 38.927 23.63C38.927 22.29 38.587 21.26 37.907 20.54C37.247 19.82 36.427 19.46 35.447 19.46C34.447 19.46 33.617 19.82 32.957 20.54C32.297 21.24 31.967 22.27 31.967 23.63C31.967 24.97 32.287 26 32.927 26.72C33.587 27.44 34.407 27.8 35.387 27.8ZM53.4286 15.02C54.6086 15.02 55.6386 15.26 56.5186 15.74C57.4186 16.22 58.1086 16.85 58.5886 17.63V15.26H63.7186V31.97C63.7186 33.51 63.4086 34.9 62.7886 36.14C62.1886 37.4 61.2586 38.4 59.9986 39.14C58.7586 39.88 57.2086 40.25 55.3486 40.25C52.8686 40.25 50.8586 39.66 49.3186 38.48C47.7786 37.32 46.8986 35.74 46.6786 33.74H51.7486C51.9086 34.38 52.2886 34.88 52.8886 35.24C53.4886 35.62 54.2286 35.81 55.1086 35.81C56.1686 35.81 57.0086 35.5 57.6286 34.88C58.2686 34.28 58.5886 33.31 58.5886 31.97V29.6C58.0886 30.38 57.3986 31.02 56.5186 31.52C55.6386 32 54.6086 32.24 53.4286 32.24C52.0486 32.24 50.7986 31.89 49.6786 31.19C48.5586 30.47 47.6686 29.46 47.0086 28.16C46.3686 26.84 46.0486 25.32 46.0486 23.6C46.0486 21.88 46.3686 20.37 47.0086 19.07C47.6686 17.77 48.5586 16.77 49.6786 16.07C50.7986 15.37 52.0486 15.02 53.4286 15.02ZM58.5886 23.63C58.5886 22.35 58.2286 21.34 57.5086 20.6C56.8086 19.86 55.9486 19.49 54.9286 19.49C53.9086 19.49 53.0386 19.86 52.3186 20.6C51.6186 21.32 51.2686 22.32 51.2686 23.6C51.2686 24.88 51.6186 25.9 52.3186 26.66C53.0386 27.4 53.9086 27.77 54.9286 27.77C55.9486 27.77 56.8086 27.4 57.5086 26.66C58.2286 25.92 58.5886 24.91 58.5886 23.63ZM79.3173 10.94V32H74.1873V10.94H79.3173ZM93.435 15.08C95.395 15.08 96.955 15.72 98.115 17C99.295 18.26 99.885 20 99.885 22.22V32H94.785V22.91C94.785 21.79 94.495 20.92 93.915 20.3C93.335 19.68 92.555 19.37 91.575 19.37C90.595 19.37 89.815 19.68 89.235 20.3C88.655 20.92 88.365 21.79 88.365 22.91V32H83.235V15.26H88.365V17.48C88.885 16.74 89.585 16.16 90.465 15.74C91.345 15.3 92.335 15.08 93.435 15.08Z" fill="white"/>
</g>
<defs>
<filter id="filter0_d_151_2918" x="11.2701" y="10.9399" width="94.6149" height="37.3101" filterUnits="userSpaceOnUse" color-interpolation-filters="sRGB">
<feFlood flood-opacity="0" result="BackgroundImageFix"/>
<feColorMatrix in="SourceAlpha" type="matrix" values="0 0 0 0 0 0 0 0 0 0 0 0 0 0 0 0 0 0 127 0" result="hardAlpha"/>
<feOffset dx="2" dy="4"/>
<feGaussianBlur stdDeviation="2"/>
<feComposite in2="hardAlpha" operator="out"/>
<feColorMatrix type="matrix" values="0 0 0 0 0 0 0 0 0 0 0 0 0 0 0 0 0 0 0.25 0"/>
<feBlend mode="normal" in2="BackgroundImageFix" result="effect1_dropShadow_151_2918"/>
<feBlend mode="normal" in="SourceGraphic" in2="effect1_dropShadow_151_2918" result="shape"/>
</filter>
<linearGradient id="paint0_linear_151_2918" x1="6.67599" y1="1.59832" x2="27.4867" y2="31.9802" gradientUnits="userSpaceOnUse">
<stop stop-color="#FF7E8B"/>
<stop offset="1" stop-color="#FF3C4E"/>
</linearGradient>
</defs>
</svg>
