<svg width="98" height="98" viewBox="0 0 98 98" fill="none" xmlns="http://www.w3.org/2000/svg">
<g filter="url(#filter0_b_169_4900)">
<rect width="98" height="98" rx="49" fill="#121419"/>
<rect x="0.5" y="0.5" width="97" height="97" rx="48.5" stroke="#303646"/>
<path fill-rule="evenodd" clip-rule="evenodd" d="M48.9998 39.2C51.8763 39.2 54.2082 41.5319 54.2082 44.4083C54.2082 45.4003 53.9308 46.3275 53.4495 47.1167H54.1468C55.9065 47.1167 57.3332 48.5432 57.3332 50.303V50.4667C57.3332 55.069 53.6022 58.8 48.9998 58.8C44.3975 58.8 40.6665 55.069 40.6665 50.4667V50.303C40.6665 48.5432 42.0931 47.1167 43.8529 47.1167H44.5502C44.0688 46.3275 43.7915 45.4003 43.7915 44.4083C43.7915 41.5319 46.1233 39.2 48.9998 39.2Z" fill="#2A2F3D"/>
<path fill-rule="evenodd" clip-rule="evenodd" d="M54 33.5833C54 32.893 54.5597 32.3333 55.25 32.3333H57.75C62.1223 32.3333 65.6667 35.8778 65.6667 40.25V42.75C65.6667 43.4404 65.107 44 64.4167 44C63.7263 44 63.1667 43.4404 63.1667 42.75V40.25C63.1667 37.2585 60.7415 34.8333 57.75 34.8333H55.25C54.5597 34.8333 54 34.2737 54 33.5833Z" fill="#49526A"/>
<path fill-rule="evenodd" clip-rule="evenodd" d="M43.9999 33.5833C43.9999 32.893 43.4403 32.3333 42.7499 32.3333H40.2499C35.8777 32.3333 32.3333 35.8778 32.3333 40.25V42.75C32.3333 43.4404 32.8929 44 33.5833 44C34.2736 44 34.8333 43.4404 34.8333 42.75V40.25C34.8333 37.2585 37.2584 34.8333 40.2499 34.8333H42.7499C43.4403 34.8333 43.9999 34.2737 43.9999 33.5833Z" fill="#49526A"/>
<path fill-rule="evenodd" clip-rule="evenodd" d="M54 64.4167C54 65.107 54.5597 65.6667 55.25 65.6667H57.75C62.1223 65.6667 65.6667 62.1223 65.6667 57.75V55.25C65.6667 54.5597 65.107 54 64.4167 54C63.7263 54 63.1667 54.5597 63.1667 55.25V57.75C63.1667 60.7415 60.7415 63.1667 57.75 63.1667H55.25C54.5597 63.1667 54 63.7263 54 64.4167Z" fill="#49526A"/>
<path fill-rule="evenodd" clip-rule="evenodd" d="M43.9999 64.4167C43.9999 65.107 43.4403 65.6667 42.7499 65.6667H40.2499C35.8777 65.6667 32.3333 62.1223 32.3333 57.75V55.25C32.3333 54.5597 32.8929 54 33.5833 54C34.2736 54 34.8333 54.5597 34.8333 55.25V57.75C34.8333 60.7415 37.2584 63.1667 40.2499 63.1667H42.7499C43.4403 63.1667 43.9999 63.7263 43.9999 64.4167Z" fill="#49526A"/>
<path fill-rule="evenodd" clip-rule="evenodd" d="M48.9998 39.2C51.8763 39.2 54.2082 41.5319 54.2082 44.4083C54.2082 45.4003 53.9308 46.3275 53.4495 47.1167H54.1468C55.9065 47.1167 57.3332 48.5432 57.3332 50.303V50.4667C57.3332 55.069 53.6022 58.8 48.9998 58.8C44.3975 58.8 40.6665 55.069 40.6665 50.4667V50.303C40.6665 48.5432 42.0931 47.1167 43.8529 47.1167H44.5502C44.0688 46.3275 43.7915 45.4003 43.7915 44.4083C43.7915 41.5319 46.1233 39.2 48.9998 39.2ZM48.9998 47.1167C50.4957 47.1167 51.7082 45.9042 51.7082 44.4083C51.7082 42.9126 50.4957 41.7 48.9998 41.7C47.504 41.7 46.2915 42.9126 46.2915 44.4083C46.2915 45.9042 47.504 47.1167 48.9998 47.1167ZM54.1468 49.6167H43.8529C43.4738 49.6167 43.1665 49.924 43.1665 50.303V50.4667C43.1665 53.6883 45.7782 56.3 48.9998 56.3C52.2215 56.3 54.8332 53.6883 54.8332 50.4667V50.303C54.8332 49.924 54.5258 49.6167 54.1468 49.6167Z" fill="#49526A"/>
</g>
<defs>
<filter id="filter0_b_169_4900" x="-4.58927" y="-4.58927" width="107.179" height="107.179" filterUnits="userSpaceOnUse" color-interpolation-filters="sRGB">
<feFlood flood-opacity="0" result="BackgroundImageFix"/>
<feGaussianBlur in="BackgroundImageFix" stdDeviation="2.29463"/>
<feComposite in2="SourceAlpha" operator="in" result="effect1_backgroundBlur_169_4900"/>
<feBlend mode="normal" in="SourceGraphic" in2="effect1_backgroundBlur_169_4900" result="shape"/>
</filter>
</defs>
</svg>
