<svg width="195" height="42" viewBox="0 0 195 42" fill="none" xmlns="http://www.w3.org/2000/svg">
<circle cx="179" cy="16" r="16" fill="url(#paint0_linear_151_2988)"/>
<g filter="url(#filter0_d_151_2988)">
<path d="M23.7224 10.94L16.2524 32H9.83238L2.36238 10.94H7.82238L13.0424 26.84L18.2924 10.94H23.7224ZM41.8464 23.36C41.8464 23.84 41.8164 24.34 41.7564 24.86H30.1464C30.2264 25.9 30.5564 26.7 31.1364 27.26C31.7364 27.8 32.4664 28.07 33.3264 28.07C34.6064 28.07 35.4964 27.53 35.9964 26.45H41.4564C41.1764 27.55 40.6664 28.54 39.9264 29.42C39.2064 30.3 38.2964 30.99 37.1964 31.49C36.0964 31.99 34.8664 32.24 33.5064 32.24C31.8664 32.24 30.4064 31.89 29.1264 31.19C27.8464 30.49 26.8464 29.49 26.1264 28.19C25.4064 26.89 25.0464 25.37 25.0464 23.63C25.0464 21.89 25.3964 20.37 26.0964 19.07C26.8164 17.77 27.8164 16.77 29.0964 16.07C30.3764 15.37 31.8464 15.02 33.5064 15.02C35.1264 15.02 36.5664 15.36 37.8264 16.04C39.0864 16.72 40.0664 17.69 40.7664 18.95C41.4864 20.21 41.8464 21.68 41.8464 23.36ZM36.5964 22.01C36.5964 21.13 36.2964 20.43 35.6964 19.91C35.0964 19.39 34.3464 19.13 33.4464 19.13C32.5864 19.13 31.8564 19.38 31.2564 19.88C30.6764 20.38 30.3164 21.09 30.1764 22.01H36.5964ZM49.8828 18.05C50.4828 17.13 51.2328 16.41 52.1328 15.89C53.0328 15.35 54.0328 15.08 55.1328 15.08V20.51H53.7228C52.4428 20.51 51.4828 20.79 50.8428 21.35C50.2028 21.89 49.8828 22.85 49.8828 24.23V32H44.7528V15.26H49.8828V18.05ZM60.3648 13.52C59.4648 13.52 58.7248 13.26 58.1448 12.74C57.5848 12.2 57.3048 11.54 57.3048 10.76C57.3048 9.96 57.5848 9.3 58.1448 8.78C58.7248 8.24 59.4648 7.97 60.3648 7.97C61.2448 7.97 61.9648 8.24 62.5248 8.78C63.1048 9.3 63.3948 9.96 63.3948 10.76C63.3948 11.54 63.1048 12.2 62.5248 12.74C61.9648 13.26 61.2448 13.52 60.3648 13.52ZM62.9148 15.26V32H57.7848V15.26H62.9148ZM75.2325 19.52H72.4725V32H67.3425V19.52H65.4825V15.26H67.3425V14.78C67.3425 12.72 67.9325 11.16 69.1125 10.1C70.2925 9.02 72.0225 8.48 74.3025 8.48C74.6825 8.48 74.9625 8.49 75.1425 8.51V12.86C74.1625 12.8 73.4725 12.94 73.0725 13.28C72.6725 13.62 72.4725 14.23 72.4725 15.11V15.26H75.2325V19.52ZM80.423 13.52C79.523 13.52 78.783 13.26 78.203 12.74C77.643 12.2 77.363 11.54 77.363 10.76C77.363 9.96 77.643 9.3 78.203 8.78C78.783 8.24 79.523 7.97 80.423 7.97C81.303 7.97 82.023 8.24 82.583 8.78C83.163 9.3 83.453 9.96 83.453 10.76C83.453 11.54 83.163 12.2 82.583 12.74C82.023 13.26 81.303 13.52 80.423 13.52ZM82.973 15.26V32H77.843V15.26H82.973ZM85.8707 23.63C85.8707 21.89 86.2207 20.37 86.9207 19.07C87.6407 17.77 88.6307 16.77 89.8907 16.07C91.1707 15.37 92.6307 15.02 94.2707 15.02C96.3707 15.02 98.1207 15.57 99.5207 16.67C100.941 17.77 101.871 19.32 102.311 21.32H96.8507C96.3907 20.04 95.5007 19.4 94.1807 19.4C93.2407 19.4 92.4907 19.77 91.9307 20.51C91.3707 21.23 91.0907 22.27 91.0907 23.63C91.0907 24.99 91.3707 26.04 91.9307 26.78C92.4907 27.5 93.2407 27.86 94.1807 27.86C95.5007 27.86 96.3907 27.22 96.8507 25.94H102.311C101.871 27.9 100.941 29.44 99.5207 30.56C98.1007 31.68 96.3507 32.24 94.2707 32.24C92.6307 32.24 91.1707 31.89 89.8907 31.19C88.6307 30.49 87.6407 29.49 86.9207 28.19C86.2207 26.89 85.8707 25.37 85.8707 23.63ZM104.235 23.6C104.235 21.88 104.555 20.37 105.195 19.07C105.855 17.77 106.745 16.77 107.865 16.07C108.985 15.37 110.235 15.02 111.615 15.02C112.795 15.02 113.825 15.26 114.705 15.74C115.605 16.22 116.295 16.85 116.775 17.63V15.26H121.905V32H116.775V29.63C116.275 30.41 115.575 31.04 114.675 31.52C113.795 32 112.765 32.24 111.585 32.24C110.225 32.24 108.985 31.89 107.865 31.19C106.745 30.47 105.855 29.46 105.195 28.16C104.555 26.84 104.235 25.32 104.235 23.6ZM116.775 23.63C116.775 22.35 116.415 21.34 115.695 20.6C114.995 19.86 114.135 19.49 113.115 19.49C112.095 19.49 111.225 19.86 110.505 20.6C109.805 21.32 109.455 22.32 109.455 23.6C109.455 24.88 109.805 25.9 110.505 26.66C111.225 27.4 112.095 27.77 113.115 27.77C114.135 27.77 114.995 27.4 115.695 26.66C116.415 25.92 116.775 24.91 116.775 23.63ZM135.146 27.65V32H132.536C130.676 32 129.226 31.55 128.186 30.65C127.146 29.73 126.626 28.24 126.626 26.18V19.52H124.586V15.26H126.626V11.18H131.756V15.26H135.116V19.52H131.756V26.24C131.756 26.74 131.876 27.1 132.116 27.32C132.356 27.54 132.756 27.65 133.316 27.65H135.146ZM140.784 13.52C139.884 13.52 139.144 13.26 138.564 12.74C138.004 12.2 137.724 11.54 137.724 10.76C137.724 9.96 138.004 9.3 138.564 8.78C139.144 8.24 139.884 7.97 140.784 7.97C141.664 7.97 142.384 8.24 142.944 8.78C143.524 9.3 143.814 9.96 143.814 10.76C143.814 11.54 143.524 12.2 142.944 12.74C142.384 13.26 141.664 13.52 140.784 13.52ZM143.334 15.26V32H138.204V15.26H143.334ZM154.871 32.24C153.231 32.24 151.751 31.89 150.431 31.19C149.131 30.49 148.101 29.49 147.341 28.19C146.601 26.89 146.231 25.37 146.231 23.63C146.231 21.91 146.611 20.4 147.371 19.1C148.131 17.78 149.171 16.77 150.491 16.07C151.811 15.37 153.291 15.02 154.931 15.02C156.571 15.02 158.051 15.37 159.371 16.07C160.691 16.77 161.731 17.78 162.491 19.1C163.251 20.4 163.631 21.91 163.631 23.63C163.631 25.35 163.241 26.87 162.461 28.19C161.701 29.49 160.651 30.49 159.311 31.19C157.991 31.89 156.511 32.24 154.871 32.24ZM154.871 27.8C155.851 27.8 156.681 27.44 157.361 26.72C158.061 26 158.411 24.97 158.411 23.63C158.411 22.29 158.071 21.26 157.391 20.54C156.731 19.82 155.911 19.46 154.931 19.46C153.931 19.46 153.101 19.82 152.441 20.54C151.781 21.24 151.451 22.27 151.451 23.63C151.451 24.97 151.771 26 152.411 26.72C153.071 27.44 153.891 27.8 154.871 27.8ZM176.753 15.08C178.713 15.08 180.273 15.72 181.433 17C182.613 18.26 183.203 20 183.203 22.22V32H178.103V22.91C178.103 21.79 177.813 20.92 177.233 20.3C176.653 19.68 175.873 19.37 174.893 19.37C173.913 19.37 173.133 19.68 172.553 20.3C171.973 20.92 171.683 21.79 171.683 22.91V32H166.553V15.26H171.683V17.48C172.203 16.74 172.903 16.16 173.783 15.74C174.663 15.3 175.653 15.08 176.753 15.08Z" fill="white"/>
</g>
<defs>
<filter id="filter0_d_151_2988" x="0.362366" y="7.97021" width="188.84" height="32.27" filterUnits="userSpaceOnUse" color-interpolation-filters="sRGB">
<feFlood flood-opacity="0" result="BackgroundImageFix"/>
<feColorMatrix in="SourceAlpha" type="matrix" values="0 0 0 0 0 0 0 0 0 0 0 0 0 0 0 0 0 0 127 0" result="hardAlpha"/>
<feOffset dx="2" dy="4"/>
<feGaussianBlur stdDeviation="2"/>
<feComposite in2="hardAlpha" operator="out"/>
<feColorMatrix type="matrix" values="0 0 0 0 0 0 0 0 0 0 0 0 0 0 0 0 0 0 0.25 0"/>
<feBlend mode="normal" in2="BackgroundImageFix" result="effect1_dropShadow_151_2988"/>
<feBlend mode="normal" in="SourceGraphic" in2="effect1_dropShadow_151_2988" result="shape"/>
</filter>
<linearGradient id="paint0_linear_151_2988" x1="169.676" y1="1.59832" x2="190.487" y2="31.9802" gradientUnits="userSpaceOnUse">
<stop stop-color="#FF7E8B"/>
<stop offset="1" stop-color="#FF3C4E"/>
</linearGradient>
</defs>
</svg>
