<svg width="25" height="25" viewBox="0 0 25 25" fill="none" xmlns="http://www.w3.org/2000/svg">
<path fill-rule="evenodd" clip-rule="evenodd" d="M9.71625 2.93013C9.93715 3.43631 9.70587 4.02573 9.19968 4.24662C7.85227 4.83461 6.66942 5.74371 5.75452 6.89445C4.83963 8.04518 4.22055 9.40252 3.95142 10.8478C3.68228 12.2931 3.77129 13.7823 4.21065 15.1852C4.65001 16.5881 5.42635 17.862 6.4718 18.8956C7.51724 19.9292 8.79996 20.6909 10.2078 21.1142C11.6157 21.5375 13.1058 21.6095 14.5479 21.3239C15.99 21.0383 17.3402 20.4038 18.4804 19.4758C19.6206 18.5478 20.5161 17.3547 21.0887 16.0006C21.3038 15.4919 21.8905 15.254 22.3992 15.469C22.9079 15.6841 23.1459 16.2709 22.9308 16.7796C22.231 18.4345 21.1364 19.8928 19.7428 21.027C18.3492 22.1612 16.699 22.9367 14.9364 23.2858C13.1739 23.6349 11.3526 23.5469 9.63192 23.0295C7.91122 22.5121 6.34345 21.5811 5.06568 20.3179C3.78791 19.0546 2.83906 17.4976 2.30206 15.7829C1.76506 14.0682 1.65628 12.2481 1.98522 10.4817C2.31416 8.71521 3.07081 7.05624 4.18901 5.64979C5.30722 4.24333 6.75293 3.1322 8.39976 2.41355C8.90595 2.19266 9.49536 2.42394 9.71625 2.93013Z" fill="#828DA9"/>
<path fill-rule="evenodd" clip-rule="evenodd" d="M12.0927 1.79289C12.2802 1.60536 12.5346 1.5 12.7998 1.5C14.2443 1.5 15.6747 1.78452 17.0093 2.33733C18.3439 2.89013 19.5565 3.70038 20.578 4.72183C21.5994 5.74327 22.4097 6.9559 22.9625 8.29048C23.5153 9.62506 23.7998 11.0555 23.7998 12.5C23.7998 13.0523 23.3521 13.5 22.7998 13.5H12.7998C12.2475 13.5 11.7998 13.0523 11.7998 12.5V2.5C11.7998 2.23478 11.9052 1.98043 12.0927 1.79289ZM13.7998 3.55573V11.5H21.7441C21.6503 10.6614 21.4389 9.83849 21.1147 9.05585C20.6624 7.96392 19.9995 6.97177 19.1638 6.13604C18.328 5.30031 17.3359 4.63738 16.244 4.18508C15.4613 3.8609 14.6384 3.64949 13.7998 3.55573Z" fill="#828DA9"/>
</svg>
