<svg width="16" height="16" viewBox="0 0 16 16" fill="none" xmlns="http://www.w3.org/2000/svg">
<g clip-path="url(#clip0_299_3013)">
<path d="M13.4246 16C13.178 15.9993 12.9339 15.9498 12.7065 15.8542C12.4792 15.7587 12.273 15.619 12.0999 15.4433L7.99992 11.3673L3.89992 15.446C3.63661 15.7132 3.29891 15.8948 2.93086 15.9672C2.56282 16.0396 2.18149 15.9995 1.83659 15.852C1.48826 15.7119 1.19028 15.47 0.981558 15.1579C0.772833 14.8459 0.663064 14.4781 0.666586 14.1027V3.33333C0.666586 2.44928 1.01778 1.60143 1.6429 0.976311C2.26802 0.351189 3.11586 0 3.99992 0L11.9999 0C12.4377 0 12.8711 0.0862192 13.2755 0.253735C13.68 0.421251 14.0474 0.666782 14.3569 0.976311C14.6665 1.28584 14.912 1.6533 15.0795 2.05772C15.247 2.46214 15.3333 2.89559 15.3333 3.33333V14.1027C15.337 14.4778 15.2276 14.8453 15.0194 15.1574C14.8112 15.4694 14.5137 15.7115 14.1659 15.852C13.9311 15.9502 13.6791 16.0005 13.4246 16ZM3.99992 1.33333C3.46949 1.33333 2.96078 1.54405 2.58571 1.91912C2.21063 2.29419 1.99992 2.8029 1.99992 3.33333V14.1027C1.99968 14.2138 2.03237 14.3224 2.09385 14.4149C2.15534 14.5075 2.24287 14.5797 2.34538 14.6225C2.44789 14.6653 2.56079 14.6768 2.66981 14.6554C2.77884 14.6341 2.87909 14.5809 2.95792 14.5027L7.53325 9.95533C7.65816 9.83117 7.82713 9.76147 8.00325 9.76147C8.17938 9.76147 8.34835 9.83117 8.47325 9.95533L13.0433 14.5013C13.1221 14.5796 13.2223 14.6328 13.3314 14.6541C13.4404 14.6754 13.5533 14.664 13.6558 14.6212C13.7583 14.5784 13.8458 14.5061 13.9073 14.4136C13.9688 14.3211 14.0015 14.2124 14.0013 14.1013V3.33333C14.0013 2.8029 13.7905 2.29419 13.4155 1.91912C13.0404 1.54405 12.5317 1.33333 12.0013 1.33333H3.99992Z" fill="white"/>
</g>
<defs>
<clipPath id="clip0_299_3013">
<rect width="16" height="16" fill="white"/>
</clipPath>
</defs>
</svg>
