<svg width="10" height="10" viewBox="0 0 10 10" fill="none" xmlns="http://www.w3.org/2000/svg">
<g clip-path="url(#clip0_135_2631)">
<path d="M1.80003 8.42006C1.90003 8.42006 1.92003 8.41006 2.01003 8.39006L3.81003 8.03006C4.00003 7.98006 4.19003 7.89006 4.34003 7.74006L8.70003 3.38006C9.37003 2.71006 9.37003 1.56006 8.70003 0.890059L8.33003 0.500059C7.66003 -0.169941 6.50003 -0.169941 5.83003 0.500059L1.47003 4.87006C1.33003 5.01006 1.23003 5.21006 1.18003 5.40006L0.800032 7.22006C0.750032 7.56006 0.850032 7.89006 1.09003 8.13006C1.28003 8.32006 1.56003 8.42006 1.80003 8.42006ZM2.14003 5.59006L6.50003 1.22006C6.79003 0.930059 7.32003 0.930059 7.60003 1.22006L7.98003 1.60006C8.32003 1.94006 8.32003 2.42006 7.98003 2.75006L3.63003 7.12006L1.78003 7.43006L2.14003 5.59006Z" fill="#CCD0DC"/>
<path d="M8.66003 9.04004H1.28003C0.990028 9.04004 0.800028 9.23004 0.800028 9.52004C0.800028 9.81004 1.04003 10 1.28003 10H8.62003C8.91003 10 9.15003 9.81004 9.15003 9.52004C9.14003 9.23004 8.90003 9.04004 8.66003 9.04004Z" fill="#CCD0DC"/>
</g>
<defs>
<clipPath id="clip0_135_2631">
<rect width="10" height="10" fill="white"/>
</clipPath>
</defs>
</svg>
