<svg width="11" height="10" viewBox="0 0 11 10" fill="none" xmlns="http://www.w3.org/2000/svg">
<path d="M10.2568 5.00004C10.2568 4.84428 10.1949 4.69491 10.0848 4.58477C9.97463 4.47463 9.82525 4.41274 9.66949 4.41272L6.08231 4.41272L6.08231 0.825537C6.07963 0.671536 6.01658 0.524748 5.90672 0.416787C5.79687 0.308826 5.64901 0.24833 5.49498 0.24833C5.34096 0.24833 5.1931 0.308826 5.08324 0.416787C4.97339 0.524748 4.91034 0.671536 4.90766 0.825537L4.90766 4.41272L1.32048 4.41272C1.16648 4.41539 1.01969 4.47845 0.911728 4.5883C0.803767 4.69816 0.743271 4.84602 0.743271 5.00004C0.743271 5.15407 0.803766 5.30193 0.911727 5.41178C1.01969 5.52164 1.16648 5.58469 1.32048 5.58737L4.90766 5.58737V9.17455C4.91034 9.32855 4.97339 9.47534 5.08324 9.5833C5.1931 9.69126 5.34096 9.75176 5.49499 9.75176C5.64901 9.75176 5.79687 9.69126 5.90672 9.5833C6.01658 9.47534 6.07963 9.32855 6.08231 9.17455L6.08231 5.58737L9.66949 5.58737C9.82525 5.58735 9.97463 5.52546 10.0848 5.41532C10.1949 5.30518 10.2568 5.1558 10.2568 5.00004Z" fill="#FF5263"/>
</svg>
