<svg width="17" height="18" viewBox="0 0 17 18" fill="none" xmlns="http://www.w3.org/2000/svg">
<path d="M2.83325 11.0436L2.302 11.0436L2.83325 11.0436ZM4.76906 13.3091L4.84203 12.7829L4.84203 12.7829L4.76906 13.3091ZM11.9844 13.3091L11.9114 12.7829L11.9114 12.7829L11.9844 13.3091ZM13.5898 9.84094L13.1335 10.113L13.5898 9.84094ZM3.16366 9.84096L2.70738 9.56886L3.16366 9.84096ZM4.59636 6.22825C4.59636 4.14042 6.28887 2.44791 8.3767 2.44791V1.38541C5.70207 1.38541 3.53386 3.55362 3.53386 6.22825H4.59636ZM4.59636 7.7105V6.22825H3.53386V7.7105H4.59636ZM3.3645 11.0436C3.3645 10.7026 3.45779 10.3849 3.61993 10.1131L2.70738 9.56886C2.44983 10.0007 2.302 10.5057 2.302 11.0436L3.3645 11.0436ZM4.84203 12.7829C3.99229 12.665 3.3645 11.9263 3.3645 11.0436L2.302 11.0436C2.302 12.4317 3.29658 13.6412 4.6961 13.8353L4.84203 12.7829ZM8.37673 13.0885C7.31991 13.0885 5.95454 12.9371 4.84203 12.7829L4.6961 13.8353C5.81723 13.9908 7.24289 14.151 8.37673 14.151V13.0885ZM11.9114 12.7829C10.7989 12.9371 9.43355 13.0885 8.37673 13.0885V14.151C9.51057 14.151 10.9362 13.9908 12.0574 13.8353L11.9114 12.7829ZM13.389 11.0436C13.389 11.9263 12.7612 12.665 11.9114 12.7829L12.0574 13.8353C13.4569 13.6412 14.4515 12.4317 14.4515 11.0436H13.389ZM13.1335 10.113C13.2957 10.3849 13.389 10.7026 13.389 11.0436H14.4515C14.4515 10.5057 14.3036 10.0007 14.0461 9.56883L13.1335 10.113ZM12.157 6.22825V7.71043H13.2195V6.22825H12.157ZM8.3767 2.44791C10.4645 2.44791 12.157 4.14042 12.157 6.22825H13.2195C13.2195 3.55362 11.0513 1.38541 8.3767 1.38541V2.44791ZM14.0461 9.56883C13.8273 9.20193 13.6285 8.90795 13.4647 8.57967C13.3077 8.26533 13.2195 7.98491 13.2195 7.71043H12.157C12.157 8.21537 12.32 8.66549 12.514 9.0542C12.7011 9.42896 12.9531 9.81053 13.1335 10.113L14.0461 9.56883ZM3.53386 7.7105C3.53386 7.98497 3.44566 8.26539 3.28876 8.57972C3.12489 8.90799 2.92618 9.20197 2.70738 9.56886L3.61993 10.1131C3.80034 9.81055 4.05234 9.42899 4.23941 9.05424C4.43343 8.66554 4.59636 8.21543 4.59636 7.7105H3.53386Z" fill="white"/>
<path d="M9.91675 15.2574C9.5857 15.7553 9.01962 16.0835 8.3769 16.0835C7.73417 16.0835 7.16809 15.7553 6.83704 15.2574" stroke="white" stroke-width="1.0625" stroke-linecap="round"/>
</svg>
