<svg width="56" height="50" viewBox="0 0 56 50" fill="none" xmlns="http://www.w3.org/2000/svg">
<g filter="url(#filter0_d_53_782)">
<path fill-rule="evenodd" clip-rule="evenodd" d="M24.7167 7.93248C24.9376 8.43867 24.7064 9.02808 24.2002 9.24897C22.8528 9.83696 21.6699 10.7461 20.755 11.8968C19.8401 13.0475 19.221 14.4049 18.9519 15.8501C18.6828 17.2954 18.7718 18.7846 19.2111 20.1875C19.6505 21.5905 20.4268 22.8644 21.4723 23.898C22.5177 24.9315 23.8005 25.6933 25.2083 26.1166C26.6161 26.5399 28.1063 26.6119 29.5484 26.3263C30.9905 26.0407 32.3406 25.4061 33.4809 24.4781C34.6211 23.5502 35.5166 22.357 36.0892 21.003C36.3043 20.4943 36.891 20.2563 37.3997 20.4714C37.9084 20.6865 38.1463 21.2732 37.9312 21.7819C37.2315 23.4368 36.1369 24.8951 34.7433 26.0293C33.3497 27.1635 31.6995 27.9391 29.9369 28.2882C28.1744 28.6373 26.3531 28.5493 24.6324 28.0319C22.9117 27.5145 21.3439 26.5835 20.0662 25.3202C18.7884 24.057 17.8395 22.4999 17.3025 20.7853C16.7655 19.0706 16.6568 17.2504 16.9857 15.484C17.3146 13.7176 18.0713 12.0586 19.1895 10.6521C20.3077 9.24568 21.7534 8.13456 23.4002 7.41591C23.9064 7.19502 24.4958 7.42629 24.7167 7.93248Z" fill="url(#paint0_linear_53_782)"/>
<path fill-rule="evenodd" clip-rule="evenodd" d="M27.0931 6.79533C27.2806 6.6078 27.535 6.50244 27.8002 6.50244C29.2448 6.50244 30.6751 6.78696 32.0097 7.33977C33.3443 7.89257 34.5569 8.70282 35.5784 9.72427C36.5998 10.7457 37.4101 11.9583 37.9629 13.2929C38.5157 14.6275 38.8002 16.0579 38.8002 17.5024C38.8002 18.0547 38.3525 18.5024 37.8002 18.5024H27.8002C27.2479 18.5024 26.8002 18.0547 26.8002 17.5024V7.50244C26.8002 7.23722 26.9056 6.98287 27.0931 6.79533ZM28.8002 8.55817V16.5024H36.7445C36.6507 15.6639 36.4393 14.8409 36.1151 14.0583C35.6628 12.9664 34.9999 11.9742 34.1642 11.1385C33.3284 10.3028 32.3363 9.63982 31.2444 9.18753C30.4617 8.86334 29.6388 8.65193 28.8002 8.55817Z" fill="url(#paint1_linear_53_782)"/>
</g>
<defs>
<filter id="filter0_d_53_782" x="0.388041" y="-5.14462" width="54.824" height="54.8189" filterUnits="userSpaceOnUse" color-interpolation-filters="sRGB">
<feFlood flood-opacity="0" result="BackgroundImageFix"/>
<feColorMatrix in="SourceAlpha" type="matrix" values="0 0 0 0 0 0 0 0 0 0 0 0 0 0 0 0 0 0 127 0" result="hardAlpha"/>
<feOffset dy="4.76471"/>
<feGaussianBlur stdDeviation="8.20588"/>
<feComposite in2="hardAlpha" operator="out"/>
<feColorMatrix type="matrix" values="0 0 0 0 1 0 0 0 0 0.270833 0 0 0 0 0.341667 0 0 0 0.57 0"/>
<feBlend mode="normal" in2="BackgroundImageFix" result="effect1_dropShadow_53_782"/>
<feBlend mode="normal" in="SourceGraphic" in2="effect1_dropShadow_53_782" result="shape"/>
</filter>
<linearGradient id="paint0_linear_53_782" x1="21.3896" y1="7.60106" x2="35.6928" y2="28.4872" gradientUnits="userSpaceOnUse">
<stop stop-color="#FF7E8B"/>
<stop offset="1" stop-color="#FF3C4E"/>
</linearGradient>
<linearGradient id="paint1_linear_53_782" x1="21.3896" y1="7.60106" x2="35.6928" y2="28.4872" gradientUnits="userSpaceOnUse">
<stop stop-color="#FF7E8B"/>
<stop offset="1" stop-color="#FF3C4E"/>
</linearGradient>
</defs>
</svg>
