<svg width="28" height="28" viewBox="0 0 28 28" fill="none" xmlns="http://www.w3.org/2000/svg">
<g filter="url(#filter0_b_151_1917)">
<path fill-rule="evenodd" clip-rule="evenodd" d="M26.7494 24.8411L24.8768 26.7136L24.8325 26.7412C23.8481 27.358 22.6268 27.6672 21.2389 27.6672C19.923 27.6672 18.4583 27.3895 16.9026 26.8341C13.7534 25.709 10.4461 23.5171 7.58963 20.6605C4.73344 17.8041 2.54095 14.4968 1.4165 11.3478C0.274851 8.15116 0.307895 5.3349 1.50927 3.41755L1.53669 3.37349L3.40952 1.50089C3.77485 1.13545 4.26197 0.934082 4.78157 0.934082C5.30094 0.934082 5.78829 1.13545 6.15362 1.50089L10.6494 5.99637C11.0147 6.36181 11.2158 6.84945 11.2158 7.3687C11.2158 7.88836 11.0147 8.37554 10.6494 8.74092L8.86358 10.5268C8.5617 11.1406 8.62756 12.0689 9.05152 13.1509C9.52086 14.3494 10.394 15.6241 11.5102 16.74C12.6266 17.8563 13.9013 18.7295 15.0994 19.1988C16.1817 19.6227 17.1102 19.6887 17.7239 19.387L19.5094 17.601C19.8747 17.2356 20.3627 17.0348 20.8817 17.0348C21.4014 17.0348 21.8885 17.2356 22.2538 17.601L26.7496 22.0965C27.5059 22.8532 27.5059 24.0844 26.7494 24.8411Z" fill="white" fill-opacity="0.85"/>
</g>
<defs>
<filter id="filter0_b_151_1917" x="-0.530261" y="-0.179797" width="28.9609" height="28.9609" filterUnits="userSpaceOnUse" color-interpolation-filters="sRGB">
<feFlood flood-opacity="0" result="BackgroundImageFix"/>
<feGaussianBlur in="BackgroundImageFix" stdDeviation="0.556939"/>
<feComposite in2="SourceAlpha" operator="in" result="effect1_backgroundBlur_151_1917"/>
<feBlend mode="normal" in="SourceGraphic" in2="effect1_backgroundBlur_151_1917" result="shape"/>
</filter>
</defs>
</svg>
