<svg width="14" height="14" viewBox="0 0 14 14" fill="none" xmlns="http://www.w3.org/2000/svg">
<g clip-path="url(#clip0_256_2661)">
<path fill-rule="evenodd" clip-rule="evenodd" d="M11.2 5.59988C12.7464 5.59988 14 4.34625 14 2.79988C14 1.25348 12.7464 -0.00012207 11.2 -0.00012207C9.89534 -0.00012207 8.79907 0.892217 8.4882 2.09988H0.7C0.313404 2.09988 0 2.41328 0 2.79988C0 3.18648 0.313404 3.49988 0.7 3.49988H8.4882C8.79907 4.70752 9.89534 5.59988 11.2 5.59988ZM9.8 2.79988C9.8 3.57308 10.4268 4.19988 11.2 4.19988C11.9732 4.19988 12.6 3.57308 12.6 2.79988C12.6 2.02668 11.9732 1.39988 11.2 1.39988C10.4268 1.39988 9.8 2.02668 9.8 2.79988ZM0 10.6908C0 9.14442 1.2536 7.89079 2.8 7.89079C4.10469 7.89079 5.20096 8.78315 5.51178 9.99079H13.3C13.6866 9.99079 14 10.3042 14 10.6908C14 11.0774 13.6866 11.3908 13.3 11.3908H5.51178C5.20096 12.5984 4.10469 13.4908 2.8 13.4908C1.2536 13.4908 0 12.2372 0 10.6908ZM4.2 10.6908C4.2 9.91757 3.5732 9.29079 2.8 9.29079C2.0268 9.29079 1.4 9.91757 1.4 10.6908C1.4 11.464 2.0268 12.0908 2.8 12.0908C3.5732 12.0908 4.2 11.464 4.2 10.6908Z" fill="white"/>
</g>
<defs>
<clipPath id="clip0_256_2661">
<rect width="14" height="14" fill="white"/>
</clipPath>
</defs>
</svg>
