<svg width="12" height="12" viewBox="0 0 12 12" fill="none" xmlns="http://www.w3.org/2000/svg">
<path fill-rule="evenodd" clip-rule="evenodd" d="M9.83593 0.818425C10.6429 0.712888 11.3079 1.37788 11.2023 2.18482C11.0481 3.36432 10.6245 5.36806 9.42675 6.65948C9.04565 7.07038 8.58533 7.45004 8.11194 7.78736L8.25026 8.75559C8.28921 9.02823 8.19752 9.3033 8.00277 9.49805L6.41178 11.089C5.90193 11.5989 5.02883 11.3079 4.92686 10.5941L4.71472 9.10914L4.71536 9.10905C4.57988 9.04348 4.45427 8.95479 4.34483 8.84535L3.1754 7.67592C3.06595 7.56647 2.97726 7.44085 2.91168 7.30537L2.91159 7.30603L1.42667 7.0939C0.712874 6.99193 0.42184 6.11882 0.931692 5.60897L2.52268 4.01798C2.71743 3.82324 2.9925 3.73155 3.26514 3.77049L4.23338 3.90881C4.5707 3.43542 4.95036 2.9751 5.36126 2.59399C6.65269 1.39624 8.65642 0.972689 9.83593 0.818425ZM2.16914 7.73028C2.31559 7.87673 2.31559 8.11417 2.16914 8.26061L1.46203 8.96772C1.31559 9.11417 1.07815 9.11417 0.931703 8.96772C0.785256 8.82127 0.785256 8.58384 0.931703 8.43739L1.63881 7.73028C1.78526 7.58384 2.02269 7.58384 2.16914 7.73028ZM3.2298 8.79094C3.37625 8.93739 3.37625 9.17483 3.2298 9.32127L1.81559 10.7355C1.66914 10.8819 1.4317 10.8819 1.28526 10.7355C1.13881 10.589 1.13881 10.3516 1.28526 10.2052L2.69947 8.79094C2.84592 8.6445 3.08335 8.6445 3.2298 8.79094ZM4.29046 9.8516C4.43691 9.99805 4.43691 10.2355 4.29046 10.3819L3.58335 11.089C3.43691 11.2355 3.19947 11.2355 3.05302 11.089C2.90658 10.9426 2.90658 10.7052 3.05302 10.5587L3.76013 9.8516C3.90658 9.70516 4.14401 9.70516 4.29046 9.8516ZM6.85356 5.16697C6.46304 4.77645 6.46304 4.14329 6.85356 3.75276C7.24409 3.36224 7.87725 3.36224 8.26778 3.75276C8.6583 4.14329 8.6583 4.77645 8.26778 5.16697C7.87725 5.5575 7.24409 5.5575 6.85356 5.16697Z" fill="url(#paint0_linear_256_2574)"/>
<defs>
<linearGradient id="paint0_linear_256_2574" x1="3.1705" y1="3.85811" x2="7.88528" y2="9.9596" gradientUnits="userSpaceOnUse">
<stop stop-color="#44D2FF"/>
<stop offset="1" stop-color="#1EA4F0"/>
</linearGradient>
</defs>
</svg>
