<svg width="19" height="20" viewBox="0 0 19 20" fill="none" xmlns="http://www.w3.org/2000/svg">
<path d="M9.11766 4.70578C10.2547 4.70578 11.1765 3.78401 11.1765 2.64696C11.1765 1.5099 10.2547 0.588135 9.11766 0.588135C7.9806 0.588135 7.05884 1.5099 7.05884 2.64696C7.05884 3.78401 7.9806 4.70578 9.11766 4.70578Z" fill="white"/>
<path d="M9.11766 11.8767C10.2547 11.8767 11.1765 10.9549 11.1765 9.81786C11.1765 8.6808 10.2547 7.75903 9.11766 7.75903C7.9806 7.75903 7.05884 8.6808 7.05884 9.81786C7.05884 10.9549 7.9806 11.8767 9.11766 11.8767Z" fill="white"/>
<path d="M9.11766 19.0476C10.2547 19.0476 11.1765 18.1258 11.1765 16.9888C11.1765 15.8517 10.2547 14.9299 9.11766 14.9299C7.9806 14.9299 7.05884 15.8517 7.05884 16.9888C7.05884 18.1258 7.9806 19.0476 9.11766 19.0476Z" fill="white"/>
</svg>
