<svg width="18" height="18" viewBox="0 0 18 18" fill="none" xmlns="http://www.w3.org/2000/svg">
<mask id="mask0_181_4978" style="mask-type:luminance" maskUnits="userSpaceOnUse" x="0" y="0" width="18" height="18">
<path d="M0 1.90735e-06H18V18H0V1.90735e-06Z" fill="white"/>
</mask>
<g mask="url(#mask0_181_4978)">
<path d="M8.9998 6.23438C7.4724 6.23438 6.23416 7.47258 6.23416 9.00002C6.23416 10.5274 7.4724 11.7656 8.9998 11.7656C10.5272 11.7656 11.7654 10.5274 11.7654 9.00002C11.7654 7.47258 10.5272 6.23438 8.9998 6.23438ZM16.7624 7.02645L16.0136 7.64288C15.1594 8.34604 15.1594 9.65396 16.0136 10.3571L16.7624 10.9735C17.0277 11.192 17.0962 11.5703 16.9244 11.868L15.4458 14.4289C15.274 14.7266 14.9121 14.8564 14.5902 14.7358L13.682 14.3956C12.646 14.0074 11.5133 14.6614 11.3314 15.7527L11.1719 16.7094C11.1154 17.0484 10.8221 17.2969 10.4784 17.2969H7.52119C7.17751 17.2969 6.88416 17.0484 6.82767 16.7094L6.6682 15.7527C6.48633 14.6614 5.35364 14.0074 4.31762 14.3956L3.40939 14.7358C3.0875 14.8564 2.72564 14.7266 2.55376 14.4289L1.07519 11.868C0.903347 11.5703 0.971867 11.192 1.23723 10.9735L1.98605 10.3571C2.84018 9.65396 2.84018 8.34604 1.98605 7.64288L1.23723 7.02645C0.971867 6.80799 0.903347 6.42971 1.07519 6.13204L2.55376 3.57108C2.72564 3.27341 3.0875 3.14362 3.40939 3.2642L4.31762 3.60444C5.35364 3.99257 6.48633 3.33863 6.6682 2.24734L6.82767 1.29064C6.88416 0.951625 7.17751 0.70314 7.52119 0.70314H10.4784C10.8221 0.70314 11.1154 0.951625 11.1719 1.29064L11.3314 2.24734C11.5133 3.33863 12.646 3.99257 13.682 3.60444L14.5902 3.2642C14.9121 3.14362 15.274 3.27341 15.4458 3.57108L16.9244 6.13204C17.0962 6.42971 17.0277 6.80799 16.7624 7.02645Z" stroke="white" stroke-width="1.2" stroke-miterlimit="10" stroke-linecap="round" stroke-linejoin="round"/>
</g>
</svg>
