<svg width="60" height="66" viewBox="0 0 60 66" fill="none" xmlns="http://www.w3.org/2000/svg">
<g filter="url(#filter0_d_57_2437)">
<path d="M39.3131 21.6835C43.9239 27.6492 43.1621 35.9767 38.1754 40.3068C33.6044 44.2749 26.1877 44.2749 21.6166 40.3068C16.6285 35.976 15.8675 27.6457 20.4817 21.6801C20.9337 21.0955 21.8934 21.0853 22.3213 21.9022C22.8177 22.8421 24.243 22.5455 24.3446 21.4872C24.713 17.6458 25.7749 14.449 28.1581 11.5952C28.7764 10.8551 29.9935 11.2248 30.0729 12.1857C30.1328 12.9007 30.3117 13.6451 30.687 14.3615C31.4306 15.7791 32.4764 16.1113 33.4818 17.3144C34.2178 18.1952 35.0157 19.5592 35.3646 21.7267C35.5226 22.7085 36.8226 22.9703 37.3469 22.125C37.3984 22.0421 37.4478 21.9551 37.4952 21.8632C37.8593 21.1585 38.8278 21.0562 39.3131 21.6835Z" fill="url(#paint0_linear_57_2437)"/>
<path d="M34.5666 30.3834C35.6723 32.4312 35.3813 35.0276 33.7471 36.7014C31.416 39.0883 27.5837 38.3328 25.8896 36.4306C24.5152 34.8876 24.7178 32.7835 24.8055 31.8693C25.0158 29.683 26.0735 27.9416 27.1917 26.6744C27.8044 25.9802 28.9365 26.5484 28.7555 27.4563C28.4735 28.8704 28.6525 30.0806 29.3376 30.8284C30.4331 32.0248 32.0029 31.8563 33.0139 30.327C33.3927 29.7532 34.2401 29.779 34.5666 30.3834Z" fill="url(#paint1_linear_57_2437)"/>
</g>
<defs>
<filter id="filter0_d_57_2437" x="0.705143" y="0.0643334" width="58.3815" height="65.4962" filterUnits="userSpaceOnUse" color-interpolation-filters="sRGB">
<feFlood flood-opacity="0" result="BackgroundImageFix"/>
<feColorMatrix in="SourceAlpha" type="matrix" values="0 0 0 0 0 0 0 0 0 0 0 0 0 0 0 0 0 0 127 0" result="hardAlpha"/>
<feOffset dy="5.5694"/>
<feGaussianBlur stdDeviation="8.35409"/>
<feComposite in2="hardAlpha" operator="out"/>
<feColorMatrix type="matrix" values="0 0 0 0 1 0 0 0 0 0.290196 0 0 0 0 0.356863 0 0 0 0.35 0"/>
<feBlend mode="normal" in2="BackgroundImageFix" result="effect1_dropShadow_57_2437"/>
<feBlend mode="normal" in="SourceGraphic" in2="effect1_dropShadow_57_2437" result="shape"/>
</filter>
<linearGradient id="paint0_linear_57_2437" x1="22.6217" y1="12.8054" x2="44.8146" y2="38.0196" gradientUnits="userSpaceOnUse">
<stop stop-color="#FF7E8B"/>
<stop offset="1" stop-color="#FF3C4E"/>
</linearGradient>
<linearGradient id="paint1_linear_57_2437" x1="27.2246" y1="29.7902" x2="36.3426" y2="36.8117" gradientUnits="userSpaceOnUse">
<stop stop-color="#FFF0A6"/>
<stop offset="1" stop-color="#FFE773"/>
</linearGradient>
</defs>
</svg>
