<svg width="14" height="14" viewBox="0 0 14 14" fill="none" xmlns="http://www.w3.org/2000/svg">
<g clip-path="url(#clip0_151_1979)">
<path d="M12.5568 4.83224L8.12992 0.512654C7.7455 0.127654 7.1925 -0.0607623 6.65525 0.0162377L2.63725 0.565738C2.31817 0.609488 2.09475 0.903488 2.1385 1.22257C2.18225 1.54165 2.47567 1.76449 2.79592 1.72132L6.8145 1.17182C6.993 1.14732 7.17733 1.20857 7.31092 1.34215L11.7384 5.66174C12.348 6.27132 12.4075 7.22507 11.9268 7.90582C11.7903 7.6334 11.6217 7.37382 11.3954 7.14749L7.035 2.82382C6.65117 2.43999 6.10342 2.25507 5.56033 2.3274L1.54175 2.8769C1.27692 2.91307 1.07042 3.12482 1.04125 3.39082L0.595 7.42515C0.536666 7.95657 0.719833 8.47749 1.099 8.85607L5.425 13.1453C5.97567 13.6966 6.70775 13.9993 7.4865 13.9993H7.49642C8.27925 13.997 9.01308 13.689 9.56317 13.1319L11.4106 11.2606C11.9513 10.7128 12.2232 10.0012 12.2407 9.28424L12.5773 8.94824C13.7002 7.81074 13.6937 5.96624 12.5586 4.83165L12.5568 4.83224ZM3.5 5.83324C3.178 5.83324 2.91667 5.5719 2.91667 5.2499C2.92017 4.4869 4.07983 4.48749 4.08333 5.2499C4.08333 5.5719 3.822 5.83324 3.5 5.83324Z" fill="#626E8E"/>
</g>
<defs>
<clipPath id="clip0_151_1979">
<rect width="14" height="14" fill="white"/>
</clipPath>
</defs>
</svg>
