<svg width="14" height="15" viewBox="0 0 14 15" fill="none" xmlns="http://www.w3.org/2000/svg">
<path d="M6.99998 0.0551758C5.45645 0.0568739 3.97661 0.670753 2.88511 1.76214C1.79361 2.85353 1.17959 4.33331 1.17773 5.87684C1.17773 7.37601 2.33857 9.72218 4.62815 12.85C4.90072 13.2234 5.2576 13.5272 5.66975 13.7366C6.0819 13.946 6.53768 14.0552 6.99998 14.0552C7.46229 14.0552 7.91807 13.946 8.33022 13.7366C8.74237 13.5272 9.09925 13.2234 9.37182 12.85C11.6614 9.72218 12.8222 7.37601 12.8222 5.87684C12.8204 4.33331 12.2064 2.85353 11.1149 1.76214C10.0234 0.670753 8.54352 0.0568739 6.99998 0.0551758ZM6.99998 8.19734C6.53849 8.19734 6.08737 8.0605 5.70365 7.80411C5.31994 7.54772 5.02087 7.1833 4.84427 6.75694C4.66766 6.33058 4.62145 5.86142 4.71149 5.4088C4.80152 4.95618 5.02375 4.54042 5.35007 4.21409C5.67639 3.88777 6.09215 3.66554 6.54477 3.57551C6.9974 3.48548 7.46655 3.53169 7.89291 3.70829C8.31927 3.8849 8.68369 4.18396 8.94008 4.56768C9.19647 4.95139 9.33332 5.40252 9.33332 5.86401C9.33332 6.48285 9.08749 7.07634 8.6499 7.51393C8.21232 7.95151 7.61882 8.19734 6.99998 8.19734Z" fill="#B3BACB"/>
</svg>
