<svg width="16" height="16" viewBox="0 0 16 16" fill="none" xmlns="http://www.w3.org/2000/svg">
<g clip-path="url(#clip0_188_1833)">
<path d="M13.9999 2.66667H11.9333C11.7785 1.91428 11.3691 1.23823 10.7741 0.752479C10.179 0.266727 9.43472 0.000969683 8.66658 0L7.33325 0C6.56511 0.000969683 5.8208 0.266727 5.22575 0.752479C4.63071 1.23823 4.22132 1.91428 4.06659 2.66667H1.99992C1.82311 2.66667 1.65354 2.7369 1.52851 2.86193C1.40349 2.98695 1.33325 3.15652 1.33325 3.33333C1.33325 3.51014 1.40349 3.67971 1.52851 3.80474C1.65354 3.92976 1.82311 4 1.99992 4H2.66659V12.6667C2.66764 13.5504 3.01917 14.3976 3.64407 15.0225C4.26896 15.6474 5.11619 15.9989 5.99992 16H9.99992C10.8836 15.9989 11.7309 15.6474 12.3558 15.0225C12.9807 14.3976 13.3322 13.5504 13.3333 12.6667V4H13.9999C14.1767 4 14.3463 3.92976 14.4713 3.80474C14.5963 3.67971 14.6666 3.51014 14.6666 3.33333C14.6666 3.15652 14.5963 2.98695 14.4713 2.86193C14.3463 2.7369 14.1767 2.66667 13.9999 2.66667ZM7.33325 1.33333H8.66658C9.0801 1.33384 9.48334 1.46225 9.82099 1.70096C10.1587 1.93967 10.4142 2.27699 10.5526 2.66667H5.44725C5.58564 2.27699 5.84119 1.93967 6.17884 1.70096C6.5165 1.46225 6.91974 1.33384 7.33325 1.33333ZM11.9999 12.6667C11.9999 13.1971 11.7892 13.7058 11.4141 14.0809C11.0391 14.456 10.5304 14.6667 9.99992 14.6667H5.99992C5.46949 14.6667 4.96078 14.456 4.5857 14.0809C4.21063 13.7058 3.99992 13.1971 3.99992 12.6667V4H11.9999V12.6667Z" fill="white"/>
<path d="M6.66667 12C6.84348 12 7.01305 11.9298 7.13807 11.8047C7.2631 11.6797 7.33333 11.5101 7.33333 11.3333V7.33333C7.33333 7.15652 7.2631 6.98695 7.13807 6.86193C7.01305 6.7369 6.84348 6.66666 6.66667 6.66666C6.48986 6.66666 6.32029 6.7369 6.19526 6.86193C6.07024 6.98695 6 7.15652 6 7.33333V11.3333C6 11.5101 6.07024 11.6797 6.19526 11.8047C6.32029 11.9298 6.48986 12 6.66667 12Z" fill="white"/>
<path d="M9.33341 12C9.51023 12 9.67979 11.9298 9.80482 11.8047C9.92984 11.6797 10.0001 11.5101 10.0001 11.3333V7.33333C10.0001 7.15652 9.92984 6.98695 9.80482 6.86193C9.67979 6.7369 9.51023 6.66666 9.33341 6.66666C9.1566 6.66666 8.98703 6.7369 8.86201 6.86193C8.73699 6.98695 8.66675 7.15652 8.66675 7.33333V11.3333C8.66675 11.5101 8.73699 11.6797 8.86201 11.8047C8.98703 11.9298 9.1566 12 9.33341 12Z" fill="white"/>
</g>
<defs>
<clipPath id="clip0_188_1833">
<rect width="16" height="16" fill="white"/>
</clipPath>
</defs>
</svg>
