<svg width="16" height="16" viewBox="0 0 16 16" fill="none" xmlns="http://www.w3.org/2000/svg">
<g clip-path="url(#clip0_181_5025)">
<path d="M8 8C8.79113 8 9.56449 7.76541 10.2223 7.32588C10.8801 6.88636 11.3928 6.26164 11.6955 5.53074C11.9983 4.79983 12.0775 3.99557 11.9231 3.21964C11.7688 2.44372 11.3878 1.73098 10.8284 1.17157C10.269 0.612165 9.55629 0.231202 8.78036 0.0768607C8.00444 -0.0774802 7.20017 0.00173314 6.46927 0.304484C5.73836 0.607234 5.11365 1.11992 4.67412 1.77772C4.2346 2.43552 4 3.20888 4 4C4.00106 5.06054 4.42283 6.07734 5.17274 6.82726C5.92266 7.57718 6.93946 7.99894 8 8ZM8 1.33334C8.52742 1.33334 9.04299 1.48973 9.48152 1.78275C9.92005 2.07577 10.2618 2.49224 10.4637 2.97951C10.6655 3.46678 10.7183 4.00296 10.6154 4.52024C10.5125 5.03753 10.2586 5.51268 9.88562 5.88562C9.51268 6.25856 9.03752 6.51254 8.52024 6.61543C8.00296 6.71832 7.46678 6.66552 6.97951 6.46368C6.49224 6.26185 6.07577 5.92005 5.78275 5.48152C5.48973 5.04299 5.33333 4.52742 5.33333 4C5.33333 3.29276 5.61428 2.61448 6.11438 2.11438C6.61448 1.61429 7.29276 1.33334 8 1.33334Z" fill="white"/>
<path d="M8 9.33334C6.40924 9.33511 4.88414 9.96782 3.75931 11.0927C2.63447 12.2175 2.00176 13.7426 2 15.3333C2 15.5102 2.07024 15.6797 2.19526 15.8047C2.32029 15.9298 2.48986 16 2.66667 16C2.84348 16 3.01305 15.9298 3.13807 15.8047C3.2631 15.6797 3.33333 15.5102 3.33333 15.3333C3.33333 14.0957 3.825 12.9087 4.70017 12.0335C5.57534 11.1583 6.76232 10.6667 8 10.6667C9.23768 10.6667 10.4247 11.1583 11.2998 12.0335C12.175 12.9087 12.6667 14.0957 12.6667 15.3333C12.6667 15.5102 12.7369 15.6797 12.8619 15.8047C12.987 15.9298 13.1565 16 13.3333 16C13.5101 16 13.6797 15.9298 13.8047 15.8047C13.9298 15.6797 14 15.5102 14 15.3333C13.9982 13.7426 13.3655 12.2175 12.2407 11.0927C11.1159 9.96782 9.59076 9.33511 8 9.33334Z" fill="white"/>
</g>
<defs>
<clipPath id="clip0_181_5025">
<rect width="16" height="16" fill="white"/>
</clipPath>
</defs>
</svg>
