<svg width="20" height="20" viewBox="0 0 20 20" fill="none" xmlns="http://www.w3.org/2000/svg">
<path fill-rule="evenodd" clip-rule="evenodd" d="M9.85496 1.66666C7.05351 1.66666 4.78249 3.93768 4.78249 6.73912V8.48295C4.78249 9.39988 4.19161 10.2018 3.72197 10.9894C3.47509 11.4033 3.33325 11.8872 3.33325 12.4043C3.33325 13.74 4.28759 14.8861 5.61068 15.0695C6.92458 15.2517 8.56637 15.4349 9.85499 15.4349C11.1436 15.4349 12.7854 15.2517 14.0993 15.0695C15.4224 14.8861 16.3767 13.74 16.3767 12.4043C16.3767 11.8872 16.2349 11.4033 15.988 10.9893C15.5183 10.2018 14.9274 9.39982 14.9274 8.48286V6.73912C14.9274 3.93768 12.6564 1.66666 9.85496 1.66666Z" fill="white"/>
<path d="M3.33325 12.4043L3.95825 12.4043L3.33325 12.4043ZM5.61068 15.0695L5.52483 15.6886L5.52483 15.6886L5.61068 15.0695ZM14.0993 15.0695L14.1851 15.6886L14.1851 15.6886L14.0993 15.0695ZM15.988 10.9893L15.4512 11.3095L15.4512 11.3095L15.988 10.9893ZM5.40749 6.73912C5.40749 4.28285 7.39869 2.29166 9.85496 2.29166V1.04166C6.70833 1.04166 4.15749 3.5925 4.15749 6.73912H5.40749ZM5.40749 8.48295V6.73912H4.15749V8.48295H5.40749ZM3.95825 12.4043C3.95825 12.003 4.06801 11.6294 4.25876 11.3095L3.18517 10.6692C2.88217 11.1773 2.70825 11.7714 2.70825 12.4043L3.95825 12.4043ZM5.69652 14.4504C4.69682 14.3118 3.95825 13.4427 3.95825 12.4043L2.70825 12.4043C2.70825 14.0373 3.87835 15.4603 5.52483 15.6886L5.69652 14.4504ZM9.85499 14.8099C8.61167 14.8099 7.00535 14.6319 5.69652 14.4504L5.52483 15.6886C6.84382 15.8715 8.52106 16.0599 9.85499 16.0599V14.8099ZM14.0135 14.4504C12.7046 14.6319 11.0983 14.8099 9.85499 14.8099V16.0599C11.1889 16.0599 12.8662 15.8715 14.1851 15.6886L14.0135 14.4504ZM15.7517 12.4043C15.7517 13.4427 15.0132 14.3118 14.0135 14.4504L14.1851 15.6886C15.8316 15.4603 17.0017 14.0373 17.0017 12.4043H15.7517ZM15.4512 11.3095C15.642 11.6293 15.7517 12.003 15.7517 12.4043H17.0017C17.0017 11.7714 16.8278 11.1773 16.5248 10.6692L15.4512 11.3095ZM14.3024 6.73912V8.48286H15.5524V6.73912H14.3024ZM9.85496 2.29166C12.3112 2.29166 14.3024 4.28285 14.3024 6.73912H15.5524C15.5524 3.5925 13.0016 1.04166 9.85496 1.04166V2.29166ZM16.5248 10.6692C16.2674 10.2376 16.0336 9.89171 15.8408 9.50549C15.6562 9.13568 15.5524 8.80577 15.5524 8.48286H14.3024C14.3024 9.07691 14.4941 9.60646 14.7224 10.0638C14.9425 10.5047 15.239 10.9536 15.4512 11.3095L16.5248 10.6692ZM4.15749 8.48295C4.15749 8.80585 4.05373 9.13576 3.86914 9.50555C3.67636 9.89176 3.44258 10.2376 3.18517 10.6692L4.25876 11.3095C4.471 10.9536 4.76748 10.5047 4.98755 10.0638C5.21582 9.60652 5.40749 9.07698 5.40749 8.48295H4.15749Z" fill="white"/>
<path d="M11.6667 17.3617C11.2773 17.9474 10.6113 18.3335 9.85516 18.3335C9.09901 18.3335 8.43303 17.9474 8.04357 17.3617" stroke="white" stroke-width="1.25" stroke-linecap="round"/>
</svg>
