<svg width="18" height="18" viewBox="0 0 18 18" fill="none" xmlns="http://www.w3.org/2000/svg">
<g clip-path="url(#clip0_273_2127)">
<path fill-rule="evenodd" clip-rule="evenodd" d="M8.1 1.8C4.62061 1.8 1.8 4.62061 1.8 8.1C1.8 11.5794 4.62061 14.4 8.1 14.4C11.5794 14.4 14.4 11.5794 14.4 8.1C14.4 4.62061 11.5794 1.8 8.1 1.8ZM0 8.1C0 3.62649 3.62649 0 8.1 0C12.5735 0 16.2 3.62649 16.2 8.1C16.2 12.5735 12.5735 16.2 8.1 16.2C3.62649 16.2 0 12.5735 0 8.1Z" fill="#828DA9"/>
<path fill-rule="evenodd" clip-rule="evenodd" d="M12.5486 12.5486C12.9001 12.1971 13.4699 12.1971 13.8214 12.5486L17.7364 16.4636C18.0879 16.8151 18.0879 17.3849 17.7364 17.7364C17.3849 18.0879 16.8151 18.0879 16.4636 17.7364L12.5486 13.8214C12.1971 13.4699 12.1971 12.9001 12.5486 12.5486Z" fill="#828DA9"/>
</g>
<defs>
<clipPath id="clip0_273_2127">
<rect width="18" height="18" fill="white"/>
</clipPath>
</defs>
</svg>
