<svg width="16" height="16" viewBox="0 0 16 16" fill="none" xmlns="http://www.w3.org/2000/svg">
<g clip-path="url(#clip0_181_4925)">
<path d="M9.88526 12.7139C10.2693 13.0979 10.0626 13.7533 9.52926 13.8519C9.52392 13.8526 9.51859 13.8539 9.51326 13.8546C9.29859 13.8939 9.07592 13.8193 8.92126 13.6646L1.47726 6.22126C1.23659 5.98059 1.21259 5.59992 1.42192 5.33192C1.42459 5.32859 1.42726 5.32459 1.43059 5.32126C1.67792 5.00526 2.15059 4.97859 2.43392 5.26259L9.88526 12.7139ZM0.351923 6.98192C0.256589 7.16326 0.177923 7.32459 0.118589 7.45392C-0.0394108 7.80126 -0.0394108 8.19926 0.118589 8.54726C0.145923 8.60792 0.181256 8.67992 0.216589 8.75259L4.15992 12.6959C4.68126 13.2173 5.33192 13.5933 6.04859 13.7646C6.10592 13.7786 6.16392 13.7913 6.22259 13.8039C6.58059 13.8813 6.82392 13.4546 6.56526 13.1959L0.351923 6.98192ZM15.8046 14.8619C16.0653 15.1226 16.0653 15.5439 15.8046 15.8046C15.6746 15.9346 15.5039 15.9999 15.3333 15.9999C15.1626 15.9999 14.9919 15.9346 14.8619 15.8046L0.195256 1.13792C-0.0654108 0.877256 -0.0654108 0.455923 0.195256 0.195256C0.455923 -0.0654108 0.877256 -0.0654108 1.13792 0.195256L3.98326 3.04059C5.20859 2.34992 6.55792 1.99992 7.99992 1.99992C12.1279 1.99992 14.4799 4.82526 15.5139 6.50926C16.1659 7.57059 16.1659 8.88926 15.5139 9.95059C15.0926 10.6366 14.3953 11.5993 13.3953 12.4526L15.8046 14.8619ZM4.96992 4.02726L6.16192 5.21926C7.45526 4.36392 9.21926 4.50526 10.3573 5.64326C11.4953 6.78192 11.6366 8.54526 10.7813 9.83859L12.4493 11.5066C13.3613 10.7499 13.9973 9.87326 14.3786 9.25259C14.7659 8.62192 14.7659 7.83792 14.3786 7.20726C13.4899 5.76059 11.4793 3.33326 8.00059 3.33326C6.92126 3.33326 5.90459 3.56659 4.96992 4.02726ZM9.80459 8.86192C10.1586 8.11859 10.0286 7.20059 9.41459 6.58592C8.79992 5.97126 7.88126 5.84192 7.13859 6.19592L9.80526 8.86259L9.80459 8.86192Z" fill="white"/>
</g>
<defs>
<clipPath id="clip0_181_4925">
<rect width="16" height="16" fill="white"/>
</clipPath>
</defs>
</svg>
