<svg width="49" height="49" viewBox="0 0 49 49" fill="none" xmlns="http://www.w3.org/2000/svg">
<g filter="url(#filter0_d_55_1352)">
<path d="M24.5999 17.5C25.5888 17.5 26.5555 17.2068 27.3777 16.6573C28.2 16.1079 28.8408 15.327 29.2193 14.4134C29.5977 13.4998 29.6967 12.4945 29.5038 11.5246C29.3109 10.5546 28.8347 9.66373 28.1354 8.96447C27.4361 8.26521 26.5452 7.789 25.5753 7.59608C24.6054 7.40315 23.6001 7.50217 22.6864 7.8806C21.7728 8.25904 20.9919 8.8999 20.4425 9.72215C19.8931 10.5444 19.5999 11.5111 19.5999 12.5C19.6012 13.8257 20.1284 15.0967 21.0658 16.0341C22.0032 16.9715 23.2742 17.4987 24.5999 17.5ZM24.5999 9.16667C25.2591 9.16667 25.9036 9.36217 26.4518 9.72844C26.9999 10.0947 27.4272 10.6153 27.6795 11.2244C27.9317 11.8335 27.9978 12.5037 27.8691 13.1503C27.7405 13.7969 27.4231 14.3909 26.9569 14.857C26.4907 15.3232 25.8968 15.6407 25.2502 15.7693C24.6036 15.8979 23.9333 15.8319 23.3242 15.5796C22.7152 15.3273 22.1946 14.9001 21.8283 14.3519C21.462 13.8037 21.2665 13.1593 21.2665 12.5C21.2665 11.6159 21.6177 10.7681 22.2428 10.143C22.868 9.51786 23.7158 9.16667 24.5999 9.16667Z" fill="url(#paint0_linear_55_1352)"/>
<path d="M24.5999 19.1667C22.6114 19.1689 20.705 19.9598 19.299 21.3658C17.8929 22.7718 17.1021 24.6782 17.0999 26.6667C17.0999 26.8877 17.1877 27.0996 17.3439 27.2559C17.5002 27.4122 17.7122 27.5 17.9332 27.5C18.1542 27.5 18.3662 27.4122 18.5224 27.2559C18.6787 27.0996 18.7665 26.8877 18.7665 26.6667C18.7665 25.1196 19.3811 23.6358 20.4751 22.5419C21.569 21.4479 23.0528 20.8333 24.5999 20.8333C26.1469 20.8333 27.6307 21.4479 28.7246 22.5419C29.8186 23.6358 30.4332 25.1196 30.4332 26.6667C30.4332 26.8877 30.521 27.0996 30.6773 27.2559C30.8335 27.4122 31.0455 27.5 31.2665 27.5C31.4875 27.5 31.6995 27.4122 31.8558 27.2559C32.0121 27.0996 32.0999 26.8877 32.0999 26.6667C32.0976 24.6782 31.3068 22.7718 29.9007 21.3658C28.4947 19.9598 26.5883 19.1689 24.5999 19.1667Z" fill="url(#paint1_linear_55_1352)"/>
<path d="M24.5999 17.5C25.5888 17.5 26.5555 17.2068 27.3777 16.6573C28.2 16.1079 28.8408 15.327 29.2193 14.4134C29.5977 13.4998 29.6967 12.4945 29.5038 11.5246C29.3109 10.5546 28.8347 9.66373 28.1354 8.96447C27.4361 8.26521 26.5452 7.789 25.5753 7.59608C24.6054 7.40315 23.6001 7.50217 22.6864 7.8806C21.7728 8.25904 20.9919 8.8999 20.4425 9.72215C19.8931 10.5444 19.5999 11.5111 19.5999 12.5C19.6012 13.8257 20.1284 15.0967 21.0658 16.0341C22.0032 16.9715 23.2742 17.4987 24.5999 17.5ZM24.5999 9.16667C25.2591 9.16667 25.9036 9.36217 26.4518 9.72844C26.9999 10.0947 27.4272 10.6153 27.6795 11.2244C27.9317 11.8335 27.9978 12.5037 27.8691 13.1503C27.7405 13.7969 27.4231 14.3909 26.9569 14.857C26.4907 15.3232 25.8968 15.6407 25.2502 15.7693C24.6036 15.8979 23.9333 15.8319 23.3242 15.5796C22.7152 15.3273 22.1946 14.9001 21.8283 14.3519C21.462 13.8037 21.2665 13.1593 21.2665 12.5C21.2665 11.6159 21.6177 10.7681 22.2428 10.143C22.868 9.51786 23.7158 9.16667 24.5999 9.16667Z" stroke="url(#paint2_linear_55_1352)" stroke-width="0.3"/>
<path d="M24.5999 19.1667C22.6114 19.1689 20.705 19.9598 19.299 21.3658C17.8929 22.7718 17.1021 24.6782 17.0999 26.6667C17.0999 26.8877 17.1877 27.0996 17.3439 27.2559C17.5002 27.4122 17.7122 27.5 17.9332 27.5C18.1542 27.5 18.3662 27.4122 18.5224 27.2559C18.6787 27.0996 18.7665 26.8877 18.7665 26.6667C18.7665 25.1196 19.3811 23.6358 20.4751 22.5419C21.569 21.4479 23.0528 20.8333 24.5999 20.8333C26.1469 20.8333 27.6307 21.4479 28.7246 22.5419C29.8186 23.6358 30.4332 25.1196 30.4332 26.6667C30.4332 26.8877 30.521 27.0996 30.6773 27.2559C30.8335 27.4122 31.0455 27.5 31.2665 27.5C31.4875 27.5 31.6995 27.4122 31.8558 27.2559C32.0121 27.0996 32.0999 26.8877 32.0999 26.6667C32.0976 24.6782 31.3068 22.7718 29.9007 21.3658C28.4947 19.9598 26.5883 19.1689 24.5999 19.1667Z" stroke="url(#paint3_linear_55_1352)" stroke-width="0.3"/>
</g>
<defs>
<filter id="filter0_d_55_1352" x="0.538187" y="-4.29696" width="48.1233" height="53.1233" filterUnits="userSpaceOnUse" color-interpolation-filters="sRGB">
<feFlood flood-opacity="0" result="BackgroundImageFix"/>
<feColorMatrix in="SourceAlpha" type="matrix" values="0 0 0 0 0 0 0 0 0 0 0 0 0 0 0 0 0 0 127 0" result="hardAlpha"/>
<feOffset dy="4.76471"/>
<feGaussianBlur stdDeviation="8.20588"/>
<feComposite in2="hardAlpha" operator="out"/>
<feColorMatrix type="matrix" values="0 0 0 0 1 0 0 0 0 0.270833 0 0 0 0 0.341667 0 0 0 0.57 0"/>
<feBlend mode="normal" in2="BackgroundImageFix" result="effect1_dropShadow_55_1352"/>
<feBlend mode="normal" in="SourceGraphic" in2="effect1_dropShadow_55_1352" result="shape"/>
</filter>
<linearGradient id="paint0_linear_55_1352" x1="20.2292" y1="8.49895" x2="34.121" y2="23.7095" gradientUnits="userSpaceOnUse">
<stop stop-color="#FF7E8B"/>
<stop offset="1" stop-color="#FF3C4E"/>
</linearGradient>
<linearGradient id="paint1_linear_55_1352" x1="20.2292" y1="8.49895" x2="34.121" y2="23.7095" gradientUnits="userSpaceOnUse">
<stop stop-color="#FF7E8B"/>
<stop offset="1" stop-color="#FF3C4E"/>
</linearGradient>
<linearGradient id="paint2_linear_55_1352" x1="20.2292" y1="8.49895" x2="34.121" y2="23.7095" gradientUnits="userSpaceOnUse">
<stop stop-color="#FF7E8B"/>
<stop offset="1" stop-color="#FF3C4E"/>
</linearGradient>
<linearGradient id="paint3_linear_55_1352" x1="20.2292" y1="8.49895" x2="34.121" y2="23.7095" gradientUnits="userSpaceOnUse">
<stop stop-color="#FF7E8B"/>
<stop offset="1" stop-color="#FF3C4E"/>
</linearGradient>
</defs>
</svg>
