<svg width="14" height="14" viewBox="0 0 14 14" fill="none" xmlns="http://www.w3.org/2000/svg">
<path d="M11.9191 2.83281C11.8148 2.73977 11.6788 2.69022 11.539 2.69433C11.3992 2.69844 11.2664 2.75589 11.1676 2.8549C11.0689 2.9539 11.0118 3.08694 11.0081 3.22671C11.0044 3.36648 11.0543 3.50236 11.1477 3.60647C12.0593 4.52047 12.5713 5.75872 12.5713 7.04966C12.5713 8.34061 12.0593 9.57886 11.1477 10.4929C11.0921 10.5424 11.0472 10.6027 11.0158 10.6702C10.9844 10.7377 10.967 10.8108 10.9648 10.8852C10.9626 10.9596 10.9757 11.0337 11.0031 11.1029C11.0305 11.1721 11.0718 11.2349 11.1243 11.2876C11.1769 11.3403 11.2396 11.3818 11.3087 11.4094C11.3778 11.437 11.4519 11.4502 11.5263 11.4482C11.6007 11.4463 11.6739 11.4291 11.7414 11.3979C11.809 11.3666 11.8695 11.3219 11.9191 11.2665C13.036 10.1473 13.6632 8.63078 13.6632 7.04966C13.6632 5.46855 13.036 3.95201 11.9191 2.83281Z" fill="white"/>
<path d="M10.438 4.47417C10.3875 4.42191 10.3272 4.38023 10.2604 4.35155C10.1937 4.32287 10.1219 4.30778 10.0492 4.30715C9.97657 4.30652 9.90452 4.32036 9.83728 4.34787C9.77003 4.37538 9.70894 4.41601 9.65757 4.46738C9.6062 4.51876 9.56557 4.57985 9.53806 4.64709C9.51055 4.71433 9.4967 4.78638 9.49734 4.85903C9.49797 4.93168 9.51306 5.00348 9.54174 5.07023C9.57041 5.13698 9.61209 5.19736 9.66435 5.24783C10.1413 5.72618 10.4091 6.37411 10.4091 7.04959C10.4091 7.72506 10.1413 8.37299 9.66435 8.85134C9.61209 8.90181 9.57041 8.96219 9.54174 9.02894C9.51306 9.0957 9.49797 9.16749 9.49734 9.24014C9.4967 9.31279 9.51055 9.38484 9.53806 9.45208C9.56557 9.51932 9.6062 9.58041 9.65757 9.63179C9.70894 9.68316 9.77003 9.72379 9.83728 9.7513C9.90452 9.77881 9.97657 9.79265 10.0492 9.79202C10.1219 9.79139 10.1937 9.7763 10.2604 9.74762C10.3272 9.71895 10.3875 9.67726 10.438 9.62501C11.12 8.94137 11.5029 8.01519 11.5029 7.04959C11.5029 6.08398 11.12 5.1578 10.438 4.47417Z" fill="white"/>
<path d="M8.09947 0.597172C6.43698 0.909224 4.95792 1.84806 3.96797 3.21965H3.27419C2.54889 3.22052 1.85355 3.50902 1.34069 4.02188C0.827828 4.53475 0.539321 5.23008 0.538452 5.95538L0.538452 8.14397C0.539321 8.86926 0.827828 9.5646 1.34069 10.0775C1.85355 10.5903 2.54889 10.8788 3.27419 10.8797H3.96852C4.95818 12.2513 6.4371 13.1902 8.09947 13.5022C8.17837 13.5167 8.25949 13.5137 8.33709 13.4934C8.41469 13.4731 8.48688 13.4359 8.54854 13.3846C8.61019 13.3333 8.65981 13.269 8.69387 13.1964C8.72794 13.1238 8.74561 13.0445 8.74565 12.9643V1.13502C8.74561 1.0548 8.72794 0.975569 8.69387 0.902942C8.65981 0.830315 8.61019 0.766066 8.54854 0.714748C8.48688 0.663429 8.41469 0.626295 8.33709 0.605976C8.25949 0.585658 8.17837 0.582652 8.09947 0.597172Z" fill="white"/>
</svg>
