<svg width="28" height="28" viewBox="0 0 28 28" fill="none" xmlns="http://www.w3.org/2000/svg">
<g filter="url(#filter0_b_151_1948)">
<path fill-rule="evenodd" clip-rule="evenodd" d="M1.97595 13.7811C1.97595 7.16792 7.33698 1.80688 13.9502 1.80688C20.5633 1.80688 25.9243 7.16792 25.9243 13.7811C25.9243 20.3943 20.5633 25.7553 13.9502 25.7553C11.8483 25.7553 9.87058 25.213 8.15187 24.2601C8.0467 24.2018 7.94437 24.1993 7.87142 24.2251L5.06156 25.218C3.33996 25.8263 1.68159 24.1679 2.28993 22.4463L3.32392 19.5201C3.34873 19.4499 3.34759 19.3519 3.29483 19.2493C2.45155 17.6092 1.97595 15.7495 1.97595 13.7811ZM8.43623 15.2289C9.20521 15.2289 9.82858 14.6055 9.82858 13.8366C9.82858 13.0676 9.20521 12.4442 8.43623 12.4442C7.66726 12.4442 7.04388 13.0676 7.04388 13.8366C7.04388 14.6055 7.66726 15.2289 8.43623 15.2289ZM15.398 13.8366C15.398 14.6055 14.7746 15.2289 14.0056 15.2289C13.2367 15.2289 12.6133 14.6055 12.6133 13.8366C12.6133 13.0676 13.2367 12.4442 14.0056 12.4442C14.7746 12.4442 15.398 13.0676 15.398 13.8366ZM19.575 15.2289C20.344 15.2289 20.9674 14.6055 20.9674 13.8366C20.9674 13.0676 20.344 12.4442 19.575 12.4442C18.806 12.4442 18.1827 13.0676 18.1827 13.8366C18.1827 14.6055 18.806 15.2289 19.575 15.2289Z" fill="white" fill-opacity="0.85"/>
</g>
<defs>
<filter id="filter0_b_151_1948" x="0.862073" y="0.693006" width="26.1761" height="26.1762" filterUnits="userSpaceOnUse" color-interpolation-filters="sRGB">
<feFlood flood-opacity="0" result="BackgroundImageFix"/>
<feGaussianBlur in="BackgroundImageFix" stdDeviation="0.556939"/>
<feComposite in2="SourceAlpha" operator="in" result="effect1_backgroundBlur_151_1948"/>
<feBlend mode="normal" in="SourceGraphic" in2="effect1_backgroundBlur_151_1948" result="shape"/>
</filter>
</defs>
</svg>
