<svg width="8" height="8" viewBox="0 0 8 8" fill="none" xmlns="http://www.w3.org/2000/svg">
<path d="M7.80542 0.194579C7.68079 0.0699904 7.51179 0 7.33556 0C7.15934 0 6.99033 0.0699904 6.86571 0.194579L3.99599 3.0643L1.12627 0.19458C1.00093 0.0735213 0.833054 0.00653559 0.658803 0.00804978C0.484553 0.00956396 0.317869 0.0794568 0.19465 0.202675C0.0714322 0.325893 0.00153931 0.492578 2.51228e-05 0.666828C-0.00148906 0.841078 0.0654967 1.00895 0.186555 1.13429L3.05628 4.00401L0.186555 6.87373C0.0654967 6.99907 -0.00148898 7.16695 2.52087e-05 7.3412C0.0015394 7.51545 0.0714322 7.68213 0.19465 7.80535C0.317869 7.92857 0.484553 7.99846 0.658803 7.99998C0.833053 8.00149 1.00093 7.9345 1.12627 7.81344L3.99599 4.94373L6.86571 7.81344C6.99105 7.9345 7.15892 8.00149 7.33317 7.99998C7.50742 7.99846 7.67411 7.92857 7.79733 7.80535C7.92054 7.68213 7.99044 7.51545 7.99195 7.3412C7.99347 7.16695 7.92648 6.99907 7.80542 6.87373L4.9357 4.00401L7.80542 1.13429C7.93001 1.00967 8 0.840658 8 0.664436C8 0.488214 7.93001 0.319206 7.80542 0.194579Z" fill="#FF5263"/>
</svg>
